<?xml version="1.0" encoding="UTF-8" standalone="no"?>
<!-- Created with Inkscape (http://www.inkscape.org/) -->

<svg
   width="183.40352mm"
   height="143.46667mm"
   viewBox="0 0 183.40352 143.46667"
   version="1.1"
   id="svg5"
   inkscape:version="1.1.1 (c3084ef, 2021-09-22)"
   sodipodi:docname="drinkandcustomer.svg"
   xmlns:inkscape="http://www.inkscape.org/namespaces/inkscape"
   xmlns:sodipodi="http://sodipodi.sourceforge.net/DTD/sodipodi-0.dtd"
   xmlns="http://www.w3.org/2000/svg"
   xmlns:svg="http://www.w3.org/2000/svg">
  <sodipodi:namedview
     id="namedview7"
     pagecolor="#ffffff"
     bordercolor="#666666"
     borderopacity="1.0"
     inkscape:pageshadow="2"
     inkscape:pageopacity="0.0"
     inkscape:pagecheckerboard="0"
     inkscape:document-units="mm"
     showgrid="false"
     width="250mm"
     inkscape:zoom="1.0998546"
     inkscape:cx="358.68377"
     inkscape:cy="234.12186"
     inkscape:window-width="1312"
     inkscape:window-height="1081"
     inkscape:window-x="586"
     inkscape:window-y="183"
     inkscape:window-maximized="0"
     inkscape:current-layer="layer1" />
  <defs
     id="defs2" />
  <g
     inkscape:label="Layer 1"
     inkscape:groupmode="layer"
     id="layer1"
     transform="translate(-12.23009,-10.549692)">
    <path
       id="path2382"
       style="fill:#000000;fill-opacity:1;stroke:none;stroke-width:0.396499;stroke-opacity:1"
       d="m 244.02148,39.873047 c -23.95975,-0.03501 -48.48797,4.655355 -71.54296,13.705078 -7.09387,2.784544 -20.25665,9.166796 -26.48633,12.841797 -10.40789,6.139808 -18.81812,12.01491 -27.4375,19.167969 -24.707912,20.504639 -44.182691,46.633749 -56.900393,76.341799 -3.333487,7.7869 -7.545702,20.55235 -9.697266,29.38867 -7.714718,31.68395 -7.643769,62.87255 0.214844,94.51758 2.025842,8.15765 6.298277,20.87609 9.720703,28.93359 7.727857,18.19393 18.230188,35.22718 31.542969,51.16016 4.227318,5.05931 14.838143,15.91685 19.878903,20.33984 25.19544,22.10767 53.01639,36.81758 84.14453,44.49414 12.02882,2.96644 23.79361,4.79031 35.72071,5.53711 7.19385,0.45048 21.83683,0.15744 29.76367,-0.5957 20.17715,-1.9171 39.86043,-6.96008 58.62891,-14.98828 a 216.82532,216.82532 0 0 1 -4.69141,-44.30274 216.82532,216.82532 0 0 1 3.60156,-38.54492 c -12.83512,0.0807 -35.57911,0.0874 -76.20898,0.0723 -49.95408,-0.0189 -91.27317,-0.16964 -91.81836,-0.33594 -3.69265,-1.12732 -6.99968,-4.23038 -8.20117,-7.69141 -1.04072,-2.99781 -0.93085,-9.33568 0.23828,-13.74609 3.43991,-12.97678 11.79616,-26.79666 23.01367,-38.06055 5.74833,-5.7721 9.80536,-9.10778 16.47266,-13.54883 5.495,-3.66019 15.50182,-8.69515 21.80664,-10.9707 5.72786,-2.06734 14.31907,-4.19966 21.32226,-5.29297 4.88224,-0.76218 7.20966,-0.88086 17.33594,-0.88086 10.08482,0 12.46203,0.1199 17.24805,0.86914 9.56303,1.49706 19.13322,4.15773 26.96093,7.49805 8.00293,3.4151 17.51222,9.13267 24.38477,14.6582 1.85332,1.49009 5.34476,4.67149 7.75781,7.07032 4.96336,4.93408 9.20089,10.10653 12.84375,15.63476 a 216.82532,216.82532 0 0 1 101.45508,-109.6875 c -1.63666,-5.62997 -3.44286,-10.86583 -5.91797,-17.17578 -2.95234,-7.52653 -8.33448,-18.76123 -12.27539,-25.62109 -1.35999,-2.3673 -4.14027,-6.85398 -6.17773,-9.96875 -7.80851,-11.9372 -15.78624,-21.70984 -26.29688,-32.216801 -4.04428,-4.042828 -9.57825,-9.203626 -12.29883,-11.46875 -9.49296,-7.90377 -20.25759,-15.474933 -29.74804,-20.921875 -5.78361,-3.31943 -15.19452,-7.984024 -21.9043,-10.857422 -7.60825,-3.258137 -20.30206,-7.44113 -29.24414,-9.636718 -14.12358,-3.467807 -27.32871,-5.224995 -42.42578,-5.646485 -1.59167,-0.04444 -3.18589,-0.06798 -4.78321,-0.07031 z m -0.0859,82.425783 c 4.50854,-0.0616 9.06405,0.52507 13.54883,1.80859 4.64504,1.32939 11.48524,4.72877 15.49414,7.70117 5.71895,4.24036 10.49834,9.55303 14.14843,15.72657 3.52534,5.96257 5.88691,12.45974 7.10743,19.54882 0.50598,2.93921 0.60524,5.37782 0.44726,11.10157 -0.21547,7.80608 -0.81063,11.45747 -2.86914,17.64453 -1.53309,4.60782 -4.65053,10.79869 -7.33398,14.5625 -4.64183,6.51065 -11.82304,12.73299 -18.70508,16.20703 -3.29515,1.66338 -8.65764,3.38817 -12.75977,4.10351 -4.35534,0.75972 -12.78568,0.74784 -17.05664,-0.0234 -6.91128,-1.24808 -14.75491,-4.66244 -20.42383,-8.89063 -6.11533,-4.56114 -12.10005,-11.79865 -15.67578,-18.95703 -1.75252,-3.50842 -3.90244,-9.85085 -4.74804,-14.00781 -1.09456,-5.38076 -1.4992,-12.21827 -1.0254,-17.3125 0.23664,-2.5442 0.69544,-5.78563 1.01954,-7.20313 1.46141,-6.3917 4.42984,-13.55138 7.72656,-18.63476 9.5037,-14.65429 25.00353,-23.15492 41.10547,-23.375 z"
       transform="scale(0.26458333)" />
    <path
       style="fill:#000000;stroke-width:0.16314"
       d="m 122.33475,139.95617 c -2.5189,-0.6553 -4.66236,-2.76618 -5.54849,-5.46413 l -0.36697,-1.11736 -0.003,-16.26292 -0.003,-16.26292 -1.23434,0.0909 c -0.92382,0.0681 -1.43723,0.0185 -2.04098,-0.19704 -1.05066,-0.37508 -2.3275,-1.60988 -2.8055,-2.713116 l -0.36788,-0.849085 -9.9e-4,-11.701297 c -9.9e-4,-12.647383 0.004,-12.747427 0.86383,-15.210131 1.94295,-5.564996 7.25693,-9.642456 12.66853,-9.720682 l 1.39523,-0.02017 0.42246,-0.655207 c 0.70181,-1.088461 2.93247,-3.272774 4.09278,-4.007733 3.71121,-2.350721 7.83177,-2.839488 11.81373,-1.4013 1.53467,0.554286 3.36853,1.646937 4.39752,2.62013 l 0.73968,0.699575 1.0396,-0.291639 c 3.06633,-0.860208 6.37539,0.380249 8.31022,3.115233 l 0.33008,0.466571 1.07779,-0.272907 c 2.8939,-0.732756 6.09238,0.514367 7.9346,3.093778 1.01381,1.41948 1.43262,2.65794 1.5265,4.514066 0.13348,2.638154 -0.53208,4.602478 -2.18683,6.454646 l -0.9249,1.035228 v 2.480324 2.480326 l 4.36675,0.0024 c 3.33808,0.0021 4.60423,0.06267 5.37493,0.257925 2.60028,0.658781 4.7165,2.719019 5.6207,5.47202 l 0.36698,1.117379 v 16.067506 16.06749 l -0.36698,1.11737 c -0.9042,2.753 -3.02042,4.81325 -5.6207,5.47203 -0.7707,0.19525 -2.03685,0.256 -5.37493,0.25792 l -4.36675,9.9e-4 -0.003,3.34036 c -0.003,3.06155 -0.0339,3.43361 -0.3703,4.45772 -0.9042,2.75301 -3.02042,4.81324 -5.62071,5.47202 -1.46008,0.36992 -33.70982,0.36266 -35.13421,-0.007 z m 34.831,-3.39889 c 0.95688,-0.33215 2.12013,-1.38605 2.64898,-2.39994 l 0.36413,-0.69811 h -2.54357 -2.54357 l -0.535,-0.57505 c -0.57247,-0.61528 -0.66692,-1.12751 -0.34704,-1.88208 0.34147,-0.80552 0.81588,-0.92549 3.65952,-0.92549 h 2.60424 V 103.73436 77.392146 h -1.73096 -1.73095 l -9.9e-4,6.511563 c -9.8e-4,6.49828 -9.8e-4,6.513319 -0.37537,7.374497 -0.43924,1.013854 -1.26957,1.957387 -2.14503,2.437416 l -0.62526,0.342847 v 14.047481 14.0475 l -0.45997,0.49437 c -0.34052,0.36601 -0.60924,0.49441 -1.03491,0.49441 -0.42568,0 -0.69441,-0.12837 -1.03496,-0.49441 l -0.45998,-0.49437 v -14.0475 -14.047481 l -0.62525,-0.342847 c -0.80092,-0.439163 -1.63697,-1.339629 -2.08694,-2.247773 -0.33819,-0.682496 -0.35792,-0.944129 -0.44268,-5.872826 -0.0815,-4.732698 -0.11563,-5.22262 -0.41409,-5.935185 -0.53303,-1.272426 -1.74185,-1.928945 -3.9153,-2.126414 l -1.15949,-0.105348 -0.98902,0.876873 c -3.59272,3.185344 -8.61984,3.190304 -12.17535,0.012 -0.51173,-0.457417 -1.03672,-0.8336 -1.16671,-0.835964 -0.12996,-0.0024 -0.39868,0.324696 -0.59715,0.726797 -1.24027,2.512801 -3.98754,4.762114 -6.72242,5.50394 l -1.09892,0.298066 -0.0399,23.033392 -0.04,23.03339 h 11.95252 c 8.93171,0 12.05681,0.051 12.36513,0.20205 0.22694,0.11109 0.51352,0.41179 0.63684,0.66813 0.36543,0.7595 0.27798,1.30459 -0.31077,1.9374 l -0.53503,0.57505 h -11.89959 -11.89962 l 0.31009,0.6533 c 0.43936,0.92562 1.79004,2.17491 2.66416,2.46418 0.61198,0.20249 3.39449,0.24349 17.1955,0.25337 15.01879,0.0103 16.53742,-0.0132 17.28519,-0.2728 z m -8.69101,-3.44985 c -0.3615,-0.22632 -0.74746,-1.04326 -0.74746,-1.58214 0,-0.23571 0.2052,-0.67538 0.45599,-0.97707 0.37733,-0.4539 0.57008,-0.5485 1.11762,-0.5485 0.54752,0 0.74028,0.0948 1.11762,0.5485 0.25079,0.30169 0.45598,0.74136 0.45598,0.97707 0,0.56067 -0.39644,1.37114 -0.77808,1.59066 -0.38404,0.22091 -1.26255,0.21628 -1.62167,-0.007 z m -22.31788,-10.45961 -0.45998,-0.49437 V 105.3853 c 0,-11.688094 0.0515,-16.871598 0.17002,-17.109612 0.27603,-0.554331 1.1698,-0.87356 1.80999,-0.646472 1.08012,0.383134 1.00983,-0.849987 1.00983,17.720264 v 16.80397 l -0.45999,0.49437 c -0.34052,0.36601 -0.60925,0.49441 -1.03493,0.49441 -0.42567,0 -0.6944,-0.12837 -1.03494,-0.49441 z m 12.58879,0 -0.45996,-0.49437 V 105.3853 c 0,-11.688094 0.0515,-16.871598 0.17003,-17.109612 0.27601,-0.554331 1.16978,-0.87356 1.80996,-0.646472 1.08012,0.383134 1.00984,-0.849987 1.00984,17.720264 v 16.80397 l -0.45997,0.49437 c -0.34054,0.36601 -0.60926,0.49441 -1.03494,0.49441 -0.42568,0 -0.6944,-0.12837 -1.03496,-0.49441 z m 34.12177,0.40612 c 1.06974,-0.34146 2.38489,-1.62803 2.88855,-2.82584 l 0.37479,-0.89135 V 103.77666 88.216561 l -0.37479,-0.891343 c -0.50366,-1.197807 -1.81881,-2.484396 -2.88855,-2.82584 -0.63607,-0.203022 -1.71473,-0.257409 -5.10531,-0.257409 h -4.29882 v 1.683668 1.683664 l 4.34124,0.04994 4.34124,0.04992 0.37955,0.474542 0.37957,0.474548 v 15.118409 15.1184 l -0.37957,0.47455 -0.37955,0.47455 -4.34124,0.0499 -4.34124,0.0499 v 1.68366 1.68367 h 4.29882 c 3.39058,0 4.46924,-0.0544 5.10531,-0.25741 z m -2.95237,-19.27728 V 91.007229 h -3.22588 -3.22588 v 12.769431 12.76943 h 3.22588 3.22588 z m -54.23717,-6.519264 c 0.22506,-0.190272 0.48206,-0.627897 0.5711,-0.972504 0.0988,-0.382056 0.16224,-3.3203 0.16278,-7.529775 4.1e-4,-4.619796 0.0571,-7.016174 0.17091,-7.244688 0.21942,-0.440662 1.07182,-0.82022 1.84204,-0.82022 0.33326,0 0.99054,-0.121419 1.46064,-0.26983 2.04506,-0.645622 3.65019,-2.016483 4.83295,-4.127587 0.36271,-0.647377 0.89013,-1.307958 1.28289,-1.606749 0.59367,-0.451624 0.79086,-0.506842 1.79428,-0.502371 1.28458,0.0057 1.8858,0.279729 3.17297,1.446083 0.43274,0.392121 1.17627,0.911016 1.65227,1.153106 0.7612,0.38711 1.06461,0.440157 2.51777,0.440157 1.45031,0 1.75809,-0.05356 2.51776,-0.438213 0.47601,-0.241017 1.25494,-0.799 1.73096,-1.239964 1.40615,-1.302607 1.57926,-1.368541 3.54061,-1.348547 3.88725,0.03962 6.22144,1.446991 7.40432,4.464341 0.26397,0.673316 0.30791,1.362526 0.38103,5.976031 l 0.0827,5.214938 0.51389,0.493247 c 0.69445,0.666533 1.42503,0.666498 2.1194,-1.03e-4 l 0.51391,-0.493345 0.0786,-7.893493 0.0786,-7.893494 0.4415,-0.407994 c 0.54777,-0.506177 1.10607,-0.515701 2.09558,-0.03575 1.18552,0.575026 2.9994,0.539712 4.17596,-0.08131 1.70979,-0.902453 2.67764,-2.533095 2.67764,-4.511319 0,-1.566374 -0.44967,-2.645338 -1.55497,-3.731091 -1.53904,-1.51181 -3.43252,-1.743877 -5.48024,-0.671665 -0.98404,0.515252 -1.06653,0.530971 -1.61752,0.30818 -0.46505,-0.188039 -0.68276,-0.441534 -1.09395,-1.273739 -0.96899,-1.961135 -2.61418,-3.107529 -4.43271,-3.088749 -0.69125,0.0072 -1.03952,0.113354 -2.47863,0.75587 -0.39688,0.177205 -0.81868,0.25058 -1.06246,0.184823 -0.22233,-0.05997 -0.9529,-0.647378 -1.6235,-1.305334 -2.01901,-1.980938 -4.83578,-3.194544 -7.41452,-3.194544 -3.58796,0 -7.18436,2.111369 -9.23012,5.418801 -0.39826,0.643879 -0.8081,1.228009 -0.91078,1.298062 -0.10259,0.07006 -1.07181,0.137166 -2.15366,0.149127 -1.48991,0.01647 -2.27061,0.111641 -3.21879,0.392333 -3.79685,1.124011 -6.65139,4.157183 -7.81546,8.304534 -0.34986,1.246457 -0.3562,1.431788 -0.41588,12.174705 -0.0423,7.61253 -0.009,11.097889 0.11226,11.534144 0.33939,1.227225 1.67933,1.733457 2.57774,0.973886 z"
       id="path21" />
    <circle
       style="fill:none;fill-opacity:1;stroke:#000000;stroke-width:3;stroke-miterlimit:4;stroke-dasharray:none;stroke-opacity:1"
       id="path2548"
       cx="141.20995"
       cy="99.592712"
       r="52.92366" />
  </g>
</svg>
