<?xml version="1.0" encoding="UTF-8" standalone="no"?>
<!-- Created with Inkscape (http://www.inkscape.org/) -->

<svg
   version="1.1"
   id="svg64"
   width="268.61304"
   height="280.74933"
   viewBox="0 0 268.61304 280.74933"
   sodipodi:docname="tankard.svg"
   inkscape:version="1.1.1 (c3084ef, 2021-09-22)"
   xmlns:inkscape="http://www.inkscape.org/namespaces/inkscape"
   xmlns:sodipodi="http://sodipodi.sourceforge.net/DTD/sodipodi-0.dtd"
   xmlns="http://www.w3.org/2000/svg"
   xmlns:svg="http://www.w3.org/2000/svg">
  <defs
     id="defs68" />
  <sodipodi:namedview
     id="namedview66"
     pagecolor="#ffffff"
     bordercolor="#666666"
     borderopacity="1.0"
     inkscape:pageshadow="2"
     inkscape:pageopacity="0.0"
     inkscape:pagecheckerboard="0"
     showgrid="false"
     inkscape:zoom="1.4415336"
     inkscape:cx="335.75353"
     inkscape:cy="61.046096"
     inkscape:window-width="1715"
     inkscape:window-height="1302"
     inkscape:window-x="1146"
     inkscape:window-y="25"
     inkscape:window-maximized="0"
     inkscape:current-layer="layer2"
     inkscape:lockguides="false" />
  <g
     inkscape:groupmode="layer"
     id="layer2"
     inkscape:label="Path"
     style="display:inline"
     transform="translate(30.018794,59.247784)">
    <g
       id="g27561"
       style="fill:#fca311;fill-opacity:1;stroke:#fca311;stroke-opacity:1"
       transform="matrix(1.0267579,0,0,1.0267579,-76.439554,360.3976)">
      <g
         id="g27553"
         transform="translate(71.616498,-352.1962)"
         style="fill:#fca311;fill-opacity:1;stroke:#fca311;stroke-opacity:1">
        <path
           id="path27537"
           style="fill:#fca311;fill-opacity:1;stroke:#fca311;stroke-width:1.11931px;stroke-linecap:butt;stroke-linejoin:miter;stroke-opacity:1;image-rendering:auto"
           d="m 208.23704,-0.53854916 c -5.17985,-0.62785514 -18.27848,3.95522996 -21.99842,8.30464176 -3.65666,4.2754254 -2.28,5.8922414 -1.74221,6.9253674 7.34592,5.612606 1.11435,8.691536 -4.52333,11.799021 -7.26851,4.006399 -11.94942,-5.640997 -14.14563,-5.640997 -2.1962,0 -14.43774,5.23391 -14.43774,5.23391 -0.0644,-7.65298 -0.37128,-15.61666 -2.47253,-14.00014 -13.95256,9.01205 -47.76572,9.88142 -73.02201,9.88142 -28.361211,0 -48.800144,-0.347401 -62.993346,-5.849671 -5.2424351,-2.032329 -5.7806559,26.97295 -5.5061308,34.65965 0.2745247,7.68669 2.7342898,7.307838 -1.372907,13.062177 -2.5716357,3.602959 -6.57932664,65.72123 -2.6298421,80.4609 1.4266857,5.32447 3.5343934,9.96116 2.7603173,14.46411 -2.0902791,12.1596 3.7914144,34.61351 10.7077966,43.50601 9.608365,12.35361 89.473102,24.96386 129.341512,-1.50338 7.3739,-4.89527 6.64119,-10.09832 6.97869,-19.29997 0.15907,-4.33687 0.0703,-5.77249 0.65584,-8.93146 4.22125,0.31378 5.88481,-0.41912 9.55032,-2.6446 3.84335,-2.33347 17.88742,-4.8548 23.92697,-4.44302 1.73222,0.11811 18.48659,0.97571 19.03564,0.2894 0.54904,-0.6863 8.94013,-14.07542 3.5869,-15.17351 -5.35324,-1.0981 -9.64108,-5.89196 -7.67486,-8.82247 2.45603,-3.66053 1.75538,-4.94709 4.15796,-6.16006 4.46304,-2.25321 7.05435,0.3507 9.93854,-1.12969 6.09988,-3.13093 12.55142,-2.78129 3.25143,-16.76245 -6.22804,-9.36293 0.0877,-14.36239 8.29969,-26.572632 2.71928,-4.043246 7.12258,-11.130078 6.71078,-18.679508 -0.41178,-7.54943 -6.27123,-16.211741 -6.27123,-16.211741 0,0 -7.39021,-10.489888 -9.58641,-14.882278 -2.1962,-4.3924 1.25816,-9.355497 2.90531,-12.238007 0.9631,-1.68542 3.77293,-8.300758 3.22388,-15.987438 C 221.01265,3.9043489 217.30826,0.5609814 208.23704,-0.53854916 Z M 162.36291,59.825479 c 2.58012,-0.170087 8.44574,-3.278989 13.02273,-2.078138 6.23686,1.636347 5.72356,4.727203 6.66533,8.344809 1.20593,4.632329 -6.22544,8.204416 -8.4687,19.941974 -1.27443,6.668254 7.86798,16.393176 9.26311,23.436806 1.29172,6.52152 -1.89417,10.86165 -6.28716,13.83664 -6.859,4.64501 -18.7145,2.03283 -18.71254,2.04263 -2.018,-9.45396 2.67136,-40.588908 -1.3584,-62.714028 -0.73181,-3.426908 -6.25057,-2.011308 5.87563,-2.810693 z"
           sodipodi:nodetypes="cscssccssssssssscsssssssssscssccssssssccs" />
        <path
           id="path27539"
           style="fill:#fca311;fill-opacity:1;stroke:#fca311;stroke-width:1px;stroke-linecap:butt;stroke-linejoin:miter;stroke-opacity:1;image-rendering:auto"
           d="m 205.65234,3.3105469 c -4.66081,-0.085065 -11.03058,4.0572188 -12.01757,9.0742191 -0.59367,3.017729 3.06615,2.575481 1.83984,8.707031 -1.9931,9.965491 -9.68784,10.668927 -13.24414,11.527344 -7.20786,1.739829 -13.49103,-8.337891 -15.45313,-8.337891 -1.9621,0 -16.18554,6.867188 -16.18554,6.867188 -0.0575,-6.837221 -0.3317,-13.952019 -2.20897,-12.507813 -12.4653,8.051427 -42.67417,8.828125 -65.238279,8.828125 -25.338068,0 -55.993539,-4.648688 -68.673828,-9.564453 -4.6836208,-1.815698 -3.924949,29.675633 -3.679687,36.542969 0.245262,6.867335 0.735533,6.376879 -1.2265629,9.810546 -1.9620959,3.433668 -4.0187259,73.899848 -0.4902343,87.068358 1.2746092,4.75691 1.9181262,4.56103 1.2265622,8.58399 -1.8674673,10.86346 3.387271,31.54367 9.566407,39.48828 8.584168,11.03679 87.992662,21.68309 123.611332,-1.96289 6.58788,-4.37346 3.68574,-19.99048 7.11328,-27.46875 0.0594,-0.12969 0.11703,-0.53078 0.17578,-0.7461 l -0.0547,0.7461 c 3.77129,0.28033 8.25255,-1.69143 11.52734,-3.67969 3.43367,-2.08473 19.62181,-4.41477 25.01758,-4.04688 1.54758,0.10552 17.29073,2.57604 17.78125,1.96289 0.49052,-0.61315 4.04628,-8.09317 -0.73633,-9.07421 -4.78261,-0.98105 -5.85037,-5.92727 -6.00781,-9.07618 -0.12263,-2.45262 -0.49146,-6.7439 4.9043,-11.28125 5.39577,-4.53735 7.84829,-1.96177 10.91406,-2.20703 3.06578,-0.24526 4.66016,-6.5 4.66016,-6.5 0,0 0.12337,-3.18759 -2.08399,-5.51757 -3.82419,-4.03665 -3.00679,-11.57931 -2.45312,-14.34766 0.49052,-2.45262 5.15453,-7.680838 9.32031,-14.103517 2.36887,-3.652256 3.31126,-9.073654 2.94336,-15.818359 -0.36789,-6.744704 -3.43359,-13.244141 -3.43359,-13.244141 0,0 -8.46173,-16.189089 -10.42383,-20.113281 -1.9621,-3.924191 -0.73524,-6.498968 0.73633,-9.074219 0.86044,-1.505764 4.90459,-12.01743 4.41406,-18.884765 -0.49052,-6.867336 -8.9394,-11.5919651 -12.14063,-11.6503911 z m -32.4414,49.0371091 c 4.39747,-0.13796 7.91601,1.242188 7.91601,1.242188 5.15527,1.938522 9.31874,4.415577 11.15821,11.773437 1.83946,7.357859 -6.86802,12.998025 -7.11328,20.478516 -0.24527,7.48049 2.2085,13.244571 5.51953,19.130863 3.31104,5.88629 3.06645,8.58359 1.34961,14.22461 -1.71683,5.64103 -5.90069,6.95098 -12.14063,10.54687 -7.23524,4.16946 -26.61133,4.53711 -26.61133,4.53711 -1.80289,-8.44623 1.14709,-58.840708 -2.45312,-78.607422 0,0 11.52707,-0.612123 17.78125,-2.574219 1.56354,-0.490524 3.12792,-0.705966 4.59375,-0.751953 z"
           sodipodi:nodetypes="sssssccsssssssssccssssssscsssscsssssscsssssccss" />
        <path
           style="fill:#fca311;fill-opacity:1;stroke:#fca311;stroke-width:3;stroke-linecap:round;stroke-linejoin:miter;stroke-miterlimit:4;stroke-dasharray:none;stroke-opacity:1"
           d="m 23.198298,78.050707 c -3.393794,32.175203 -1.758914,58.772733 0.245261,73.332453"
           id="path27541"
           sodipodi:nodetypes="cc" />
        <path
           style="fill:#fca311;fill-opacity:1;stroke:#fca311;stroke-width:3;stroke-linecap:round;stroke-linejoin:miter;stroke-miterlimit:4;stroke-dasharray:none;stroke-opacity:1"
           d="m 57.103961,82.86668 c -2.457871,30.70501 -1.956733,56.64547 0.257587,75.71324"
           id="path27543"
           sodipodi:nodetypes="cc" />
        <path
           style="fill:#fca311;fill-opacity:1;stroke:#fca311;stroke-width:3;stroke-linecap:round;stroke-linejoin:miter;stroke-miterlimit:4;stroke-dasharray:none;stroke-opacity:1"
           d="m 97.411088,84.744616 c 2.961202,19.471664 2.828742,42.274694 0.215507,75.671174"
           id="path27545"
           sodipodi:nodetypes="cc" />
        <path
           style="fill:#fca311;fill-opacity:1;stroke:#fca311;stroke-width:3;stroke-linecap:round;stroke-linejoin:miter;stroke-miterlimit:4;stroke-dasharray:none;stroke-opacity:1"
           d="m 131.6585,82.12579 c 3.49483,29.04284 3.33351,46.4405 0.57618,70.96699"
           id="path27547"
           sodipodi:nodetypes="cc" />
        <path
           style="fill:#fca311;fill-opacity:1;stroke:#fca311;stroke-width:1px;stroke-linecap:butt;stroke-linejoin:miter;stroke-opacity:1"
           d="m 10.893118,53.538949 c 7.35786,6.376811 32.143479,10.980559 46.007662,11.946001 14.09115,0.981247 49.78818,1.348941 64.74916,-0.490524 5.01842,-0.617018 25.42647,-3.890775 29.24732,-7.66508 l 0.91991,9.136652 c 0,0 -12.50836,4.659977 -24.77146,6.867335 -12.2631,2.207358 -54.570305,3.185142 -76.031217,1.22631 C 32.862428,72.902824 8.6850855,65.151956 10.546265,63.522854 c 1.187364,-1.039307 0.346853,-9.983905 0.346853,-9.983905 z"
           id="path27549"
           sodipodi:nodetypes="cssccsssc" />
        <path
           style="fill:#fca311;fill-opacity:1;stroke:#fca311;stroke-width:1px;stroke-linecap:butt;stroke-linejoin:miter;stroke-opacity:1"
           d="m 151.05441,152.78867 c -4.63172,4.7246 -16.99579,15.43495 -58.964985,17.16921 -41.969192,1.73427 -67.78303,-6.44824 -82.030693,-16.12865 l 0.346853,7.45733 c 7.498308,9.64171 34.252348,17.00056 63.24113,18.07482 21.464316,0.79542 50.384425,-4.09911 60.615085,-7.60972 5.57727,-1.91382 17.25564,-6.45206 16.96603,-9.07769 -0.30838,-2.79585 -0.17342,-9.8853 -0.17342,-9.8853 z"
           id="path27551"
           sodipodi:nodetypes="csccsssc" />
      </g>
      <g
         id="g27559"
         transform="matrix(1.1471318,0,0,1.1471318,68.493323,-345.72008)"
         style="fill:#fca311;fill-opacity:1;stroke:#fca311;stroke-opacity:1">
        <path
           style="fill:#fca311;fill-opacity:1;stroke:#fca311;stroke-width:2.08543;stroke-opacity:1"
           d="m 143.09273,39.765808 c 0,5.19527 -10.55297,19.13585 -15.92416,21.03601 -2.53091,0.89535 -3.83229,3.35687 -3.83878,7.26092 -0.006,3.24849 -2.05975,6.24956 -5.25987,10.4114 -3.20011,4.16186 -7.09707,3.17372 -11.808,1.97976 -4.71098,-1.19397 -9.88784,-6.90679 -13.63685,-10.84782 -3.74902,-3.94103 -6.81642,-9.27779 -6.81642,-11.85944 0,-2.58162 -1.17839,-4.69389 -2.61864,-4.69389 -8.99566,-5.7942 -11.96928,-16.71921 -21.40833,-18.64052 -8.63055,-1.67009 -10.12797,-1.70626 -30.78795,-0.74358 -9.34887,0.43562 -13.19575,-0.59328 -26.849,-7.3828 0,0 -14.72217,-5.2189 -18.66384,-10.80425 -10.38965,-14.7221 -2.86091,-24.9127 13.95416,-30.68219 2.74457,-0.94171 8.7427,-4.2219 15.3345,-11.08372 11.81778,-12.30185 25.54195,-18.25513 39.95358,-17.33113 5.69906,0.36543 11.20553,-1.12006 17.25834,-4.65575 20.93541,-12.22918 52.40548,-3.70478 71.28668,19.30968 4.71901,5.75208 11.01138,12.14837 13.98298,14.21397 11.75294,8.16962 14.59049,24.31338 1.73314,42.33283 -5.85978,4.88371 -15.89154,9.80076 -15.89154,12.18052 z"
           id="path27555"
           sodipodi:nodetypes="cszzsccssccsssssscsc" />
        <path
           style="fill:#fca311;fill-opacity:1;stroke:#fca311;stroke-width:2.08543;stroke-opacity:1"
           d="m 112.9692,63.144495 -6.41976,-5.639465 7.47087,-0.0244 c 9.78404,-0.03191 20.27072,-5.043707 23.16456,-11.070695 1.27129,-2.647659 2.0095,-9.608616 1.6405,-15.468829 l -0.67093,-10.654916 4.07794,4.273824 c 8.23022,8.625547 19.42785,1.240493 14.38461,-9.486924 -1.44271,-3.06878 -0.99315,-3.85301 2.20873,-3.85301 3.12264,0 4.02013,-1.43089 4.02013,-6.40945 0,-7.16029 -8.6182,-16.82096 -17.13009,-19.20219 -3.02468,-0.84613 -4.09103,-1.99947 -2.72121,-2.94312 3.02106,-2.08111 -11.46312,-18.13895 -21.15037,-23.44831 -11.89055,-6.51693 -37.077073,-5.720373 -46.511996,1.36348 -3.905877,2.932579 -6.755663,3.731829 -8.210386,6.969466 -2.096622,4.666253 0.555864,8.239977 0.623719,8.002637 3.476373,-0.832322 5.496922,-1.017612 6.900187,-0.928553 0,0 7.786323,-0.47511 12.839527,0.49397 l 9.187657,1.76197 -15.279582,1.315 c -13.357612,1.14962 -16.060852,2.13236 -21.490642,7.81276 -5.15872,5.39683 -5.68068,7.54733 -3.78979,3.47468 1.25213,-2.69687 5.418646,-8.245841 7.10503,-10.20204 1.313112,-1.523205 3.066955,-2.723524 3.066955,-2.723524 0.149986,-1.649838 -6.806951,-7.283735 -11.838095,-8.757706 -9.398035,-2.753336 -20.6262,-1.26581 -32.5723,7.17851 -4.72889,3.34269 -10.86425,9.70259 -10.86425,9.70259 -0.0687,0.05 3.00159,-0.25296 7.20601,0.54072 7.42935,1.40246 4.58826,-0.0614 -2.95503,1.83416 -8.7378605,2.19583 -12.0391105,5.46191 -14.65735047,11.97902001 -1.47218,3.66440999 -1.05933,3.44370999 -0.72908,-1.57483001 0.28237,-4.29085 1.17646997,-6.8138 2.27224997,-8.1521 -14.1833995,-3.48364 -19.0545895,11.13121001 -19.0545895,14.9637 0,4.04011 7.0057095,11.18914 12.3456995,12.59827 4.57722003,1.20784 6.50572,0.56858 5.43211003,-3.07876 -1.03521,-3.51693 0.14876997,-8.71201 0.16723997,-8.69352 -0.10048997,-0.0726 0.61627,4.59056 1.97529,6.51585 6.27228,8.88572 13.6395905,18.625959 28.1780405,18.870414 12.13584,0.204096 16.18466,-0.59993 12.16981,-6.687202 -1.64874,-2.499802 -3.25135,-5.564282 -3.34075,-10.892232 -0.0457,-2.72011 2.68274,-7.09725 2.78116,-6.9887 0.0984,0.10855 -0.59858,3.14424 0.17912,6.58653 2.98453,13.210297 6.54976,11.928821 16.32337,11.928821 5.66178,0 6.76478,-0.799874 6.83111,-4.953861 0.0747,-4.67925 -0.8431,-4.33048 1.9282,1.36247 5.23123,10.74618 20.284365,15.42567 30.221394,10.075094 4.167872,-2.244174 4.184202,-2.206745 0.480265,1.10086 -2.108887,1.883237 -6.834598,3.424044 -10.501582,3.424044 -6.108026,0 -6.614842,0.507877 -6.042232,6.054732 0.45145,4.373258 2.545014,7.123808 7.538618,9.904335 5.708191,3.178405 6.138704,3.850174 2.469147,3.85301 -2.444449,0.0019 -4.444466,1.304216 -4.444466,2.894075 0,3.302346 17.242112,21.192123 24.255642,19.018315 7.0135,-2.173784 7.28062,-8.439855 0.92959,-14.018934 z m 30.12353,-23.378687 c 0,5.19527 -10.55297,19.135856 -15.92416,21.036011 -2.53091,0.895354 -3.83229,3.356872 -3.83878,7.260923 -0.006,3.248485 -2.05975,6.249561 -5.25987,10.411402 -3.20011,4.161853 -7.09707,3.173722 -11.808,1.979753 C 101.55094,79.259928 96.37408,73.547113 92.625071,69.60608 88.87605,65.665051 85.80865,60.328291 85.80865,57.746646 c 0,-2.581626 -1.178387,-4.693892 -2.61864,-4.693892 C 74.194354,47.258553 71.220734,36.33354 61.781684,34.412231 c -8.63055,-1.670086 -10.12797,-1.706261 -30.78795,-0.743582 -9.34887,0.435627 -13.19575,-0.593282 -26.8490005,-7.382794 0,0 -14.7221695,-5.218905 -18.6638395,-10.804255 -10.38965,-14.72209999 -2.86091,-24.9127 13.95415953,-30.68219 2.74456997,-0.94171 8.74269997,-4.2219 15.33450047,-11.08372 11.81778,-12.30185 25.54195,-18.25513 39.95358,-17.33113 5.69906,0.36543 11.20553,-1.12006 17.25834,-4.65575 20.93541,-12.22918 52.405476,-3.70478 71.286676,19.30968 4.71901,5.75208 11.01138,12.14837 13.98298,14.21397 11.75294,8.16962 14.59049,24.31338 1.73314,42.332829 -5.85978,4.88371 -15.89154,9.800765 -15.89154,12.180519 z"
           id="path27557"
           sodipodi:nodetypes="sssscsssssssssscccssssscsscsssscssscsssssssssssssssszcscszzsccssccsssssscsc" />
      </g>
    </g>
    <g
       id="g11640">
      <path
         id="path12794"
         style="fill:#000000;fill-opacity:1;stroke:#000000;stroke-width:1.11931px;stroke-linecap:butt;stroke-linejoin:miter;stroke-opacity:1;image-rendering:auto"
         d="M 208.23704,-0.53854916 C 203.05719,-1.1664043 195.93032,2.9389402 192.21038,7.288352 c -3.65666,4.275425 -2.28,5.892241 -1.74221,6.925367 7.34592,5.612606 1.11435,8.691536 -4.52333,11.799021 -7.26851,4.006399 -17.92118,-5.163256 -20.11739,-5.163256 -2.1962,0 -14.43774,5.23391 -14.43774,5.23391 -0.0644,-7.65298 -0.37128,-15.61666 -2.47253,-14.00014 -13.95256,9.01205 -47.76572,9.88142 -73.02201,9.88142 -28.361211,0 -48.800144,-0.347401 -62.993346,-5.849671 -5.2424351,-2.032329 -5.7806559,26.97295 -5.5061308,34.65965 0.2745247,7.68669 2.7342898,7.307838 -1.372907,13.062177 -2.5716357,3.602959 -6.57932664,65.72123 -2.6298421,80.4609 1.4266857,5.32447 3.5343934,9.96116 2.7603173,14.46411 -2.0902791,12.1596 3.7914144,34.61351 10.7077966,43.50601 9.608365,12.35361 89.473102,24.96386 129.341512,-1.50338 7.3739,-4.89527 4.84966,-10.09832 5.18716,-19.29997 0.15907,-4.33687 0.0703,-5.77249 0.65584,-8.93146 4.22125,0.31378 7.67634,-0.41912 11.34185,-2.6446 3.84335,-2.33347 17.88742,-4.8548 23.92697,-4.44302 1.73222,0.11811 18.48659,0.97571 19.03564,0.2894 0.54904,-0.6863 8.51786,-10.35947 3.16463,-11.45756 -5.35324,-1.0981 -9.64108,-5.89196 -7.67486,-8.82247 2.45603,-3.66053 2.17765,-8.66304 4.58023,-9.87601 4.46304,-2.25321 7.05435,0.3507 9.93854,-1.12969 6.09988,-3.13093 12.55142,-2.78129 3.25143,-16.76245 -6.22804,-9.36293 0.0877,-14.36239 8.29969,-26.572632 2.71928,-4.043246 7.12258,-11.130078 6.71078,-18.679508 -0.41178,-7.54943 -6.27123,-16.211741 -6.27123,-16.211741 0,0 -7.39021,-10.489888 -9.58641,-14.882278 -2.1962,-4.3924 1.25816,-9.355497 2.90531,-12.238007 0.9631,-1.68542 3.77293,-8.300758 3.22388,-15.987438 C 221.01265,3.9043489 217.30826,0.5609814 208.23704,-0.53854916 Z M 164.22088,58.136411 c 2.58012,-0.170087 8.44574,-3.278989 13.02273,-2.078138 6.23686,1.636347 8.42493,5.572035 9.36784,9.189343 1.20593,4.626308 -2.29648,4.370418 -7.96198,18.759626 -3.26359,10.092334 6.82755,16.150728 9.76983,29.010728 1.01543,4.4382 -2.0172,8.06319 -5.61153,11.97867 -6.32089,6.88566 -26.14444,5.25186 -26.14444,5.25186 -2.018,-9.45396 2.67136,-48.865344 -1.3584,-70.990464 -0.73181,-3.426908 -3.21025,-0.32224 8.91595,-1.121625 z"
         sodipodi:nodetypes="cscssccssssssssscsssssssssscssccssscssccs" />
      <path
         id="path1359"
         style="fill:#fca311;fill-opacity:1;stroke:none;stroke-width:1px;stroke-linecap:butt;stroke-linejoin:miter;stroke-opacity:1;image-rendering:auto"
         d="m 205.65234,3.3105469 c -4.66081,-0.085065 -11.03058,4.0572188 -12.01757,9.0742191 -0.59367,3.017729 3.06615,2.575481 1.83984,8.707031 -1.9931,9.965491 -9.68784,10.668927 -13.24414,11.527344 -7.20786,1.739829 -13.49103,-8.337891 -15.45313,-8.337891 -1.9621,0 -16.18554,6.867188 -16.18554,6.867188 -0.0575,-6.837221 -0.3317,-13.952019 -2.20897,-12.507813 -12.4653,8.051427 -42.67417,8.828125 -65.238279,8.828125 -25.338068,0 -55.993539,-4.648688 -68.673828,-9.564453 -4.6836208,-1.815698 -3.924949,29.675633 -3.679687,36.542969 0.245262,6.867335 0.735533,6.376879 -1.2265629,9.810546 -1.9620959,3.433668 -4.0187259,73.899848 -0.4902343,87.068358 1.2746092,4.75691 1.9181262,4.56103 1.2265622,8.58399 -1.8674673,10.86346 3.387271,31.54367 9.566407,39.48828 8.584168,11.03679 87.992662,21.68309 123.611332,-1.96289 6.58788,-4.37346 3.68574,-19.99048 7.11328,-27.46875 0.0594,-0.12969 0.11703,-0.53078 0.17578,-0.7461 l -0.0547,0.7461 c 3.77129,0.28033 8.25255,-1.69143 11.52734,-3.67969 3.43367,-2.08473 19.62181,-4.41477 25.01758,-4.04688 1.54758,0.10552 17.29073,2.57604 17.78125,1.96289 0.49052,-0.61315 4.04628,-8.09317 -0.73633,-9.07421 -4.78261,-0.98105 -5.85037,-5.92727 -6.00781,-9.07618 -0.12263,-2.45262 -0.49146,-6.7439 4.9043,-11.28125 5.39577,-4.53735 7.84829,-1.96177 10.91406,-2.20703 3.06578,-0.24526 4.66016,-6.5 4.66016,-6.5 0,0 0.12337,-3.18759 -2.08399,-5.51757 -3.82419,-4.03665 -3.00679,-11.57931 -2.45312,-14.34766 0.49052,-2.45262 5.15453,-7.680838 9.32031,-14.103517 2.36887,-3.652256 3.31126,-9.073654 2.94336,-15.818359 -0.36789,-6.744704 -3.43359,-13.244141 -3.43359,-13.244141 0,0 -8.46173,-16.189089 -10.42383,-20.113281 -1.9621,-3.924191 -0.73524,-6.498968 0.73633,-9.074219 0.86044,-1.505764 4.90459,-12.01743 4.41406,-18.884765 -0.49052,-6.867336 -8.9394,-11.5919651 -12.14063,-11.6503911 z m -32.4414,49.0371091 c 4.39747,-0.13796 7.91601,1.242188 7.91601,1.242188 5.15527,1.938522 9.31874,4.415577 11.15821,11.773437 1.83946,7.357859 -6.86802,12.998025 -7.11328,20.478516 -0.24527,7.48049 2.2085,13.244571 5.51953,19.130863 3.31104,5.88629 3.06645,8.58359 1.34961,14.22461 -1.71683,5.64103 -5.90069,6.95098 -12.14063,10.54687 -7.23524,4.16946 -26.61133,4.53711 -26.61133,4.53711 -1.80289,-8.44623 1.14709,-58.840708 -2.45312,-78.607422 0,0 11.52707,-0.612123 17.78125,-2.574219 1.56354,-0.490524 3.12792,-0.705966 4.59375,-0.751953 z"
         sodipodi:nodetypes="sssssccsssssssssccssssssscsssscsssssscsssssccss" />
      <path
         style="fill:none;stroke:#000000;stroke-width:3;stroke-linecap:round;stroke-linejoin:miter;stroke-miterlimit:4;stroke-dasharray:none;stroke-opacity:1"
         d="m 23.198298,78.050707 c -3.393794,32.175203 -1.758914,58.772733 0.245261,73.332453"
         id="path7583"
         sodipodi:nodetypes="cc" />
      <path
         style="fill:none;stroke:#000000;stroke-width:3;stroke-linecap:round;stroke-linejoin:miter;stroke-miterlimit:4;stroke-dasharray:none;stroke-opacity:1"
         d="m 57.103961,82.86668 c -2.457871,30.70501 -1.956733,56.64547 0.257587,75.71324"
         id="path7713"
         sodipodi:nodetypes="cc" />
      <path
         style="fill:none;stroke:#000000;stroke-width:3;stroke-linecap:round;stroke-linejoin:miter;stroke-miterlimit:4;stroke-dasharray:none;stroke-opacity:1"
         d="m 97.411088,84.744616 c 2.961202,19.471664 2.828742,42.274694 0.215507,75.671174"
         id="path7881"
         sodipodi:nodetypes="cc" />
      <path
         style="fill:none;stroke:#000000;stroke-width:3;stroke-linecap:round;stroke-linejoin:miter;stroke-miterlimit:4;stroke-dasharray:none;stroke-opacity:1"
         d="m 131.6585,82.12579 c 3.49483,29.04284 3.33351,46.4405 0.57618,70.96699"
         id="path8082"
         sodipodi:nodetypes="cc" />
      <path
         style="fill:#000000;fill-opacity:1;stroke:#000000;stroke-width:1px;stroke-linecap:butt;stroke-linejoin:miter;stroke-opacity:1"
         d="m 10.893118,53.538949 c 7.35786,6.376811 32.146752,12.957348 46.007662,11.946001 10.331778,-0.753848 49.70383,1.31001 64.74916,-0.490524 5.02039,-0.600809 25.42647,-3.890775 29.24732,-7.66508 l 0.91991,9.136652 c 0,0 -12.50836,4.659977 -24.77146,6.867335 -12.2631,2.207358 -54.487056,1.73316 -76.031217,1.22631 C 27.034849,73.995495 8.6850855,65.151956 10.546265,63.522854 c 1.187364,-1.039307 0.346853,-9.983905 0.346853,-9.983905 z"
         id="path8345"
         sodipodi:nodetypes="cssccsssc" />
      <path
         style="fill:#000000;fill-opacity:1;stroke:#000000;stroke-width:1px;stroke-linecap:butt;stroke-linejoin:miter;stroke-opacity:1"
         d="m 151.05441,152.78867 c -4.63172,4.7246 -16.99579,15.43495 -58.964985,17.16921 -41.969192,1.73427 -67.78303,-6.44824 -82.030693,-16.12865 l 0.346853,7.45733 c 7.498308,9.64171 4.518072,13.47356 63.24113,18.07482 24.168344,1.89372 51.039325,-4.42656 60.615085,-7.60972 5.59544,-1.86003 17.25564,-6.45206 16.96603,-9.07769 -0.30838,-2.79585 -0.17342,-9.8853 -0.17342,-9.8853 z"
         id="path10373"
         sodipodi:nodetypes="csccsssc" />
    </g>
    <g
       id="g11551"
       transform="matrix(1.1471318,0,0,1.1471318,-3.1231754,6.4761189)">
      <path
         style="fill:#fca311;fill-opacity:1;stroke-width:2.08543"
         d="m 143.09273,39.765808 c 0,5.19527 -10.55297,19.13585 -15.92416,21.03601 -2.53091,0.89535 -3.83229,3.35687 -3.83878,7.26092 -0.006,3.24849 -2.05975,6.24956 -5.25987,10.4114 -3.20011,4.16186 -7.09707,3.17372 -11.808,1.97976 -4.71098,-1.19397 -9.88784,-6.90679 -13.63685,-10.84782 -3.74902,-3.94103 -6.81642,-9.27779 -6.81642,-11.85944 0,-2.58162 -1.17839,-4.69389 -2.61864,-4.69389 -8.99566,-5.7942 -11.96928,-16.71921 -21.40833,-18.64052 -8.63055,-1.67009 -10.12797,-1.70626 -30.78795,-0.74358 -9.34887,0.43562 -13.19575,-0.59328 -26.849,-7.3828 0,0 -14.72217,-5.2189 -18.66384,-10.80425 -10.38965,-14.7221 -2.86091,-24.9127 13.95416,-30.68219 2.74457,-0.94171 8.7427,-4.2219 15.3345,-11.08372 11.81778,-12.30185 25.54195,-18.25513 39.95358,-17.33113 5.69906,0.36543 11.20553,-1.12006 17.25834,-4.65575 20.93541,-12.22918 52.40548,-3.70478 71.28668,19.30968 4.71901,5.75208 11.01138,12.14837 13.98298,14.21397 11.75294,8.16962 14.59049,24.31338 1.73314,42.33283 -5.85978,4.88371 -15.89154,9.80076 -15.89154,12.18052 z"
         id="path10834"
         sodipodi:nodetypes="cszzsccssccsssssscsc" />
      <path
         style="fill:#000000;fill-opacity:1;stroke:none;stroke-width:2.08543"
         d="m 112.9692,63.144495 -6.41976,-5.639465 7.47087,-0.0244 c 9.78404,-0.03191 20.27072,-5.043707 23.16456,-11.070695 1.27129,-2.647659 2.0095,-9.608616 1.6405,-15.468829 l -0.67093,-10.654916 4.07794,4.273824 c 8.23022,8.625547 19.42785,1.240493 14.38461,-9.486924 -1.44271,-3.06878 -0.99315,-3.85301 2.20873,-3.85301 3.12264,0 4.02013,-1.43089 4.02013,-6.40945 0,-7.16029 -8.6182,-16.82096 -17.13009,-19.20219 -3.02468,-0.84613 -4.09103,-1.99947 -2.72121,-2.94312 3.02106,-2.08111 -11.46312,-18.13895 -21.15037,-23.44831 -11.89055,-6.51693 -37.077073,-5.720373 -46.511996,1.36348 -3.905877,2.932579 -6.755663,3.731829 -8.210386,6.969466 -2.096622,4.666253 0.555864,8.239977 0.623719,8.002637 3.476373,-0.832322 5.496922,-1.017612 6.900187,-0.928553 0,0 7.786323,-0.47511 12.839527,0.49397 l 9.187657,1.76197 -15.279582,1.315 c -13.357612,1.14962 -16.060852,2.13236 -21.490642,7.81276 -5.15872,5.39683 -5.68068,7.54733 -3.78979,3.47468 1.25213,-2.69687 5.418646,-8.245841 7.10503,-10.20204 1.313112,-1.523205 3.066955,-2.723524 3.066955,-2.723524 0.149986,-1.649838 -6.806951,-7.283735 -11.838095,-8.757706 -9.398035,-2.753336 -20.6262,-1.26581 -32.5723,7.17851 -4.72889,3.34269 -10.86425,9.70259 -10.86425,9.70259 -0.0687,0.05 3.00159,-0.25296 7.20601,0.54072 7.42935,1.40246 4.58826,-0.0614 -2.95503,1.83416 -8.7378605,2.19583 -12.0391105,5.46191 -14.65735047,11.97902001 -1.47218,3.66440999 -1.05933,3.44370999 -0.72908,-1.57483001 0.28237,-4.29085 1.17646997,-6.8138 2.27224997,-8.1521 -14.1833995,-3.48364 -19.0545895,11.13121001 -19.0545895,14.9637 0,4.04011 7.0057095,11.18914 12.3456995,12.59827 4.57722003,1.20784 6.50572,0.56858 5.43211003,-3.07876 -1.03521,-3.51693 0.14876997,-8.71201 0.16723997,-8.69352 -0.10048997,-0.0726 0.61627,4.59056 1.97529,6.51585 6.27228,8.88572 13.6395905,18.625959 28.1780405,18.870414 12.13584,0.204096 16.18466,-0.59993 12.16981,-6.687202 -1.64874,-2.499802 -3.25135,-5.564282 -3.34075,-10.892232 -0.0457,-2.72011 2.68274,-7.09725 2.78116,-6.9887 0.0984,0.10855 -0.59858,3.14424 0.17912,6.58653 2.98453,13.210297 6.54976,11.928821 16.32337,11.928821 5.66178,0 6.76478,-0.799874 6.83111,-4.953861 0.0747,-4.67925 -0.8431,-4.33048 1.9282,1.36247 5.23123,10.74618 20.284365,15.42567 30.221394,10.075094 4.167872,-2.244174 4.184202,-2.206745 0.480265,1.10086 -2.108887,1.883237 -6.834598,3.424044 -10.501582,3.424044 -6.108026,0 -6.614842,0.507877 -6.042232,6.054732 0.45145,4.373258 2.545014,7.123808 7.538618,9.904335 5.708191,3.178405 6.138704,3.850174 2.469147,3.85301 -2.444449,0.0019 -4.444466,1.304216 -4.444466,2.894075 0,3.302346 17.242112,21.192123 24.255642,19.018315 7.0135,-2.173784 7.28062,-8.439855 0.92959,-14.018934 z m 30.12353,-23.378687 c 0,5.19527 -10.55297,19.135856 -15.92416,21.036011 -2.53091,0.895354 -3.83229,3.356872 -3.83878,7.260923 -0.006,3.248485 -2.05975,6.249561 -5.25987,10.411402 -3.20011,4.161853 -7.09707,3.173722 -11.808,1.979753 C 101.55094,79.259928 96.37408,73.547113 92.625071,69.60608 88.87605,65.665051 85.80865,60.328291 85.80865,57.746646 c 0,-2.581626 -1.178387,-4.693892 -2.61864,-4.693892 C 74.194354,47.258553 71.220734,36.33354 61.781684,34.412231 c -8.63055,-1.670086 -10.12797,-1.706261 -30.78795,-0.743582 -9.34887,0.435627 -13.19575,-0.593282 -26.8490005,-7.382794 0,0 -14.7221695,-5.218905 -18.6638395,-10.804255 -10.38965,-14.72209999 -2.86091,-24.9127 13.95415953,-30.68219 2.74456997,-0.94171 8.74269997,-4.2219 15.33450047,-11.08372 11.81778,-12.30185 25.54195,-18.25513 39.95358,-17.33113 5.69906,0.36543 11.20553,-1.12006 17.25834,-4.65575 20.93541,-12.22918 52.405476,-3.70478 71.286676,19.30968 4.71901,5.75208 11.01138,12.14837 13.98298,14.21397 11.75294,8.16962 14.59049,24.31338 1.73314,42.332829 -5.85978,4.88371 -15.89154,9.800765 -15.89154,12.180519 z"
         id="path5168"
         sodipodi:nodetypes="sssscsssssssssscccssssscsscsssscssscsssssssssssssssszcscszzsccssccsssssscsc" />
    </g>
    <path
       style="fill:#000000;fill-opacity:1;stroke:none;stroke-width:1px;stroke-linecap:butt;stroke-linejoin:miter;stroke-opacity:1"
       d="m 149.99815,171.87938 c 2.16461,-33.87832 1.67673,-20.67388 2.92493,-43.34772 l 4.1388,1.78582 c 0.50848,2.32263 0.41943,15.83908 -0.99233,19.26019 -2.41238,5.84587 -2.7224,8.53376 -2.25597,13.23659 0.0827,0.83337 -0.59899,5.12428 -1.1212,8.06877 z"
       id="path45169"
       sodipodi:nodetypes="cccsscc" />
  </g>
</svg>
