<?xml version="1.0" encoding="UTF-8" standalone="no"?>
<!-- Created with Inkscape (http://www.inkscape.org/) -->

<svg
   width="134.91914mm"
   height="135.34276mm"
   viewBox="0 0 134.91914 135.34276"
   version="1.1"
   id="svg5"
   inkscape:version="1.1.1 (c3084ef, 2021-09-22)"
   sodipodi:docname="bartender.svg"
   xmlns:inkscape="http://www.inkscape.org/namespaces/inkscape"
   xmlns:sodipodi="http://sodipodi.sourceforge.net/DTD/sodipodi-0.dtd"
   xmlns="http://www.w3.org/2000/svg"
   xmlns:svg="http://www.w3.org/2000/svg">
  <sodipodi:namedview
     id="namedview7"
     pagecolor="#ffffff"
     bordercolor="#666666"
     borderopacity="1.0"
     inkscape:pageshadow="2"
     inkscape:pageopacity="0.0"
     inkscape:pagecheckerboard="0"
     inkscape:document-units="mm"
     showgrid="false"
     fit-margin-top="0"
     fit-margin-left="0"
     fit-margin-right="0"
     fit-margin-bottom="0"
     inkscape:zoom="0.77771465"
     inkscape:cx="-350.38558"
     inkscape:cy="369.67286"
     inkscape:window-width="3440"
     inkscape:window-height="1301"
     inkscape:window-x="0"
     inkscape:window-y="25"
     inkscape:window-maximized="0"
     inkscape:current-layer="layer1" />
  <defs
     id="defs2" />
  <g
     inkscape:label="Layer 1"
     inkscape:groupmode="layer"
     id="layer1"
     transform="translate(-34.261722,-45.32548)">
    <path
       style="fill:#000000;stroke-width:0.264583"
       d="m 73.543522,180.30998 c -4.175916,-1.03158 -7.499762,-3.97811 -8.832997,-7.83028 -0.277006,-0.80036 -1.48154,-6.93208 -2.67674,-13.62604 -1.195202,-6.69396 -2.220316,-12.22091 -2.278033,-12.28212 -0.05772,-0.0612 -0.373845,0.14134 -0.702506,0.4501 -1.79476,1.68609 -5.587725,2.21041 -8.064527,1.1148 -1.584931,-0.70109 -10.826407,-9.88007 -11.586124,-11.50778 -0.271683,-0.58208 -0.54235,-1.85205 -0.601482,-2.82216 -0.156194,-2.56246 0.466666,-4.22949 2.219813,-5.94111 l 1.390892,-1.35794 -1.058476,-1.02481 c -0.582162,-0.56365 -1.359425,-1.53382 -1.727251,-2.15595 -0.627336,-1.06104 -0.662033,-1.30696 -0.559967,-3.96875 0.08595,-2.24137 0.23147,-3.08524 0.692583,-4.0161 l 0.583775,-1.17849 -1.045047,-1.07047 c -1.234684,-1.26472 -1.604953,-2.13209 -1.604953,-3.75969 0,-1.75213 0.553922,-2.66887 3.14409,-5.20349 2.530612,-2.47634 3.234041,-2.87023 5.107736,-2.86015 1.411593,0.008 2.285037,0.39786 3.760477,1.68018 l 1.032094,0.89701 1.071935,-0.53035 c 1.270493,-0.62859 5.01696,-0.96423 6.752211,-0.60493 0.923911,0.19131 1.577065,0.64083 3.241147,2.23069 1.146233,1.0951 2.084059,1.85358 2.084059,1.6855 0,-0.16808 0.501235,-0.84938 1.113856,-1.514 2.2123,-2.40006 5.308579,-3.26921 8.315081,-2.33412 2.199098,0.68397 4.553929,3.0388 5.237901,5.2379 1.003392,3.2261 -0.05903,6.71764 -2.655369,8.72653 l -1.417468,1.09676 1.773507,1.7872 c 0.975429,0.98296 1.904775,1.7872 2.065213,1.7872 0.160436,0 0.569934,-0.29616 0.909995,-0.65814 0.917033,-0.97614 4.111675,-3.1155 6.220825,-4.16592 2.503754,-1.24693 4.091455,-1.73952 12.531399,-3.88789 3.981849,-1.01358 7.295809,-1.89894 7.364349,-1.96748 0.0685,-0.0685 0.45085,-2.39316 0.84959,-5.16582 l 0.72496,-5.04119 -1.86632,-1.241023 C 99.224609,95.411537 95.615171,89.583437 94.588178,82.389077 94.177135,79.5096 94.249757,68.2793 94.698679,65.301265 c 1.085281,-7.199457 4.404243,-12.92571 9.427271,-16.265018 2.17631,-1.446803 4.24682,-2.318808 7.33586,-3.089527 3.11329,-0.776766 9.91719,-0.836132 13.27858,-0.115859 9.03933,1.936936 14.84779,7.838115 16.84657,17.115498 0.41661,1.933697 0.4812,3.473192 0.46608,11.108343 -0.0163,8.212135 -0.0592,9.014085 -0.58396,10.911985 -1.75458,6.34564 -4.49327,10.29555 -9.95363,14.35572 l -0.71165,0.52917 0.78408,5.381233 c 0.43124,2.95968 0.84078,5.43794 0.91008,5.50725 0.0693,0.0693 3.3826,0.95238 7.36287,1.9624 3.98027,1.01002 8.01076,2.09061 8.95664,2.40131 7.74424,2.54378 14.50061,9.01021 17.49248,16.74183 1.26163,3.26031 1.81461,6.37686 1.81863,10.24965 l 0.003,3.34991 -0.81405,0.68498 c -1.31851,1.10946 -3.18188,0.79441 -3.96589,-0.67054 -0.15737,-0.29404 -0.38864,-2.2227 -0.51393,-4.28591 -0.26385,-4.34486 -0.7754,-6.29129 -2.57098,-9.78242 -1.05438,-2.05004 -1.23494,-2.27046 -1.51717,-1.85209 -0.17619,0.2612 -1.82758,3.22715 -3.66976,6.59102 -5.80741,10.60449 -5.74831,10.33748 -5.92313,26.75835 l -0.1331,12.50157 h 7.4529 7.4529 l -0.0817,-4.48873 -0.0817,-4.48873 0.7276,-0.73078 c 1.06067,-1.06529 2.63013,-1.03106 3.62197,0.079 0.69125,0.77365 0.73137,0.97301 0.89896,4.46759 0.2517,5.24823 0.21658,8.55912 -0.097,9.14505 -0.73792,1.37881 1.82607,1.31004 -47.93474,1.28576 -35.644225,-0.0174 -46.4172,-0.0967 -47.439698,-0.3493 z m 10.839143,-5.57446 c 1.349793,-0.6668 2.800437,-2.1228 3.442491,-3.45522 0.635394,-1.3186 0.831948,-3.98238 0.392171,-5.31492 -0.277321,-0.84028 -11.52275,-19.82502 -12.191764,-20.58235 -0.120402,-0.1363 -1.082255,0.58395 -2.208366,1.65364 -2.462998,2.33961 -2.95179,2.40484 -6.210787,0.82882 -1.212725,-0.58646 -2.237803,-1.03294 -2.277951,-0.99218 -0.191103,0.19401 4.15458,23.48296 4.543877,24.35109 0.779304,1.73784 2.588289,3.28482 4.595516,3.92991 0.364744,0.11723 2.508639,0.18761 4.764212,0.15641 3.464004,-0.0479 4.264075,-0.13726 5.150601,-0.5752 z m 31.891055,-11.52458 c 0,-11.36447 -0.0344,-12.28039 -0.51407,-13.69219 -0.46543,-1.36982 -15.883206,-30.7893 -16.459428,-31.40709 -0.283676,-0.30414 -6.0438,1.10769 -9.399854,2.30395 -2.111399,0.7526 -6.868075,3.61631 -7.126841,4.29064 -0.07056,0.18388 1.422152,3.1464 3.317137,6.58338 4.513855,8.18688 5.197432,9.57021 6.111801,12.36829 1.472234,4.50521 1.579911,5.8241 1.580837,19.36293 l 8.44e-4,12.36927 h 11.244784 11.24479 z m 27.78125,-0.22158 c 0,-17.97004 -0.0846,-17.62335 7.78575,-31.90019 1.84001,-3.33777 3.28946,-6.21459 3.22102,-6.39295 -0.25416,-0.66235 -5.02822,-3.53406 -7.12299,-4.28467 -3.3385,-1.19625 -9.11043,-2.60975 -9.3989,-2.30171 -0.62457,0.66697 -16.20347,30.43847 -16.56506,31.65607 -0.34346,1.15654 -0.4094,3.33115 -0.4094,13.5014 v 12.12281 h 11.24479 11.24479 z m -16.03949,-0.41702 c -1.81129,-0.78355 -2.25575,-2.79435 -0.91419,-4.13591 1.98066,-1.98066 5.30492,0.12827 4.24307,2.69182 -0.57333,1.38413 -2.01838,2.011 -3.32888,1.44409 z m -39.40022,-9.20878 c -0.215006,-3.04389 -0.627528,-5.59114 -1.231908,-7.60678 -0.510101,-1.70121 -3.60811,-8.20208 -3.908729,-8.20208 -0.08564,0 -0.972518,0.82312 -1.970839,1.82915 l -1.815129,1.82914 4.335767,7.16662 c 2.384671,3.94164 4.427849,7.16665 4.540395,7.16669 0.112546,4e-5 0.135244,-0.9822 0.05044,-2.18274 z M 55.882586,142.69961 c 0.35281,-0.40093 0.595312,-1.02192 0.595312,-1.52448 0,-0.74578 -0.550061,-1.39588 -4.564062,-5.39412 -2.748571,-2.73778 -4.842153,-4.61333 -5.26317,-4.71505 -1.620151,-0.39143 -3.178908,1.41575 -2.579952,2.99112 0.302882,0.79664 7.588152,8.2961 8.835309,9.09507 1.004121,0.64328 2.167959,0.46633 2.976563,-0.45254 z m 66.167874,-4.91465 c 1.63665,-3.07481 2.94119,-5.68062 2.89898,-5.79068 -0.134,-0.34934 -5.84521,-6.61041 -6.02988,-6.61041 -0.18392,0 -5.89547,6.2602 -6.02919,6.60834 -0.0963,0.25074 5.78614,11.38332 6.01493,11.38332 0.0932,0 1.5085,-2.51575 3.14516,-5.59057 z m -46.929407,0.57347 4.747016,-4.75252 -0.781023,-1.64115 c -1.516034,-3.18563 -3.375867,-5.4472 -9.753658,-11.86052 -3.479742,-3.49912 -6.397704,-6.36204 -6.48436,-6.36204 -0.08666,0 -3.014126,2.86111 -6.505489,6.35802 l -6.347932,6.35801 6.085416,5.93337 c 3.346979,3.26336 6.770502,6.44467 7.607832,7.06959 1.879748,1.40291 5.745215,3.64659 6.28555,3.64841 0.219797,8e-4 2.535787,-2.13728 5.146648,-4.75117 z m 38.088157,-14.7101 3.06451,-3.32304 v -2.3655 -2.3655 h -4.12899 c -2.91469,0 -4.6071,0.12365 -5.75469,0.42044 -0.89413,0.23125 -1.66904,0.46311 -1.72202,0.51526 -0.0864,0.085 5.29223,10.44138 5.42273,10.44138 0.0297,0 1.43298,-1.49537 3.11846,-3.32304 z m 17.31406,-1.85253 c 1.50709,-2.84624 2.69772,-5.21676 2.64583,-5.26781 -0.0519,-0.0511 -0.8259,-0.28201 -1.72002,-0.51326 -1.14759,-0.29679 -2.84,-0.42044 -5.75469,-0.42044 h -4.129 v 2.35953 2.35953 l 2.97656,3.30791 c 1.63711,1.81935 3.0361,3.31728 3.10886,3.32873 0.0728,0.0115 1.36537,-2.30794 2.87246,-5.15419 z M 58.167681,108.69289 c -1.081731,-1.08173 -1.086629,-1.08342 -2.586931,-0.89597 -1.202641,0.15025 -1.751528,0.39305 -2.745546,1.21446 -1.012308,0.83652 -1.450628,1.02666 -2.366767,1.02666 -1.019706,0 -1.292957,-0.15904 -2.935462,-1.7085 l -1.811093,-1.70849 -1.369226,1.38645 -1.369225,1.38645 1.484964,1.44652 c 2.448,2.38463 2.650763,3.58153 0.944439,5.57499 -0.757938,0.88548 -0.990959,1.42069 -1.129648,2.59461 -0.172813,1.46275 -0.1628,1.49143 0.910849,2.60873 l 1.085582,1.12972 6.485924,-6.48592 6.485923,-6.48592 z m 14.042423,4.11052 c 1.703645,-0.80843 1.9743,-2.83887 0.566127,-4.24704 -1.480392,-1.48039 -3.474072,-1.1011 -4.273873,0.8131 -0.420031,1.00528 -0.254733,1.88966 0.513623,2.74802 0.999098,1.11613 1.886113,1.30661 3.194123,0.68592 z m 54.646956,-3.0317 c 0,-0.48633 -0.59272,-4.81441 -0.92765,-6.77371 l -0.14057,-0.82233 -1.92912,0.45961 c -2.95125,0.70313 -5.82572,0.87597 -8.37975,0.50388 -3.89423,-0.56734 -3.48862,-0.83711 -4.00762,2.66554 -0.24797,1.67349 -0.45972,3.37013 -0.47057,3.77032 l -0.0197,0.7276 h 7.9375 c 7.76979,0 7.9375,-0.0112 7.9375,-0.53091 z m -3.57028,-12.448453 c 3.27397,-1.00246 5.33676,-2.26528 7.95768,-4.87161 1.96067,-1.94975 2.60553,-2.80366 3.5031,-4.63861 1.67838,-3.43124 1.94272,-4.74164 2.0941,-10.381016 0.10883,-4.053864 0.067,-4.976506 -0.22941,-5.063808 -0.19937,-0.05871 -1.39566,-0.348347 -2.65844,-0.643636 -2.8618,-0.669208 -6.11399,-2.196191 -8.62943,-4.051729 -3.16768,-2.336677 -4.33642,-3.143146 -4.55506,-3.143146 -0.11391,0 -0.57871,0.579111 -1.03291,1.286914 -1.20388,1.876083 -3.7505,4.188119 -5.49047,4.984703 -1.99059,0.911323 -4.97463,1.150303 -5.99719,0.48029 -0.735,-0.481589 -1.23146,-1.787627 -1.23397,-3.246178 -7.9e-4,-0.472942 -0.0644,-0.859895 -0.14131,-0.859895 -0.53417,0 -3.57127,1.830821 -5.24974,3.164638 l -2.018751,1.60423 v 4.471458 c 0,2.758633 0.143525,5.221595 0.374685,6.429755 1.477916,7.72438 7.472666,13.60614 15.298576,15.01021 2.07309,0.37194 5.88162,0.11867 8.00854,-0.53257 z m -9.10937,-12.44099 c -0.5612,-0.56121 -0.8141,-1.07057 -0.8141,-1.63967 0,-0.83566 2.73293,-8.4776 3.2768,-9.162733 0.16229,-0.204444 0.68203,-0.533464 1.15497,-0.731155 1.6897,-0.706303 3.69364,0.818869 3.44548,2.622301 -0.0652,0.473998 -0.4302,1.665489 -0.81106,2.647754 l -0.69248,1.785938 h 0.67493 c 1.40642,0 2.74094,1.300675 2.74094,2.671425 0,0.85145 -0.69819,1.9626 -1.44781,2.30415 -0.40799,0.18589 -1.93358,0.31609 -3.70366,0.31609 -3.00828,0 -3.01035,-5.3e-4 -3.82401,-0.8141 z m 22.57755,-18.831211 c -1.42304,-8.554755 -5.22097,-13.120678 -12.41875,-14.929981 -1.3755,-0.345759 -2.92166,-0.463684 -6.07811,-0.46358 -3.60628,1.19e-4 -4.54549,0.08914 -6.34071,0.600962 -5.70253,1.625817 -9.42323,5.353342 -11.22797,11.248595 -0.30541,0.997593 -0.55528,1.916736 -0.55528,2.042538 0,0.125803 0.68461,-0.184749 1.52136,-0.690114 2.06619,-1.24791 4.89103,-2.392995 6.84046,-2.772866 1.38248,-0.269394 1.73235,-0.253976 2.43062,0.10711 1.11514,0.576665 1.22663,0.814382 1.37839,2.939107 l 0.1323,1.852084 1.2338,-1.137008 c 0.74191,-0.683705 1.66322,-1.962393 2.31089,-3.207301 1.27212,-2.445177 1.89359,-2.831612 4.1309,-2.56866 2.31668,0.272281 4.07405,1.092149 6.55316,3.057255 1.27738,1.012534 2.94425,2.196053 3.70417,2.630041 1.52877,0.873085 5.0212,2.1344 5.93911,2.144949 0.518,0.006 0.57152,-0.0965 0.44566,-0.853131 z M 47.835646,158.72091 c -2.208389,-0.72296 -3.997381,-1.98612 -7.615992,-5.37747 -2.959261,-2.7734 -3.056338,-2.89969 -3.056338,-3.97602 0,-1.36918 0.521814,-2.15694 1.682501,-2.54 1.335971,-0.44091 2.001093,-0.0607 5.468471,3.12612 1.711659,1.57316 3.571118,3.08765 4.13213,3.36554 1.093858,0.54183 3.596477,0.64753 5.968326,0.25208 1.162121,-0.19376 1.297297,-0.15427 2.050521,0.59895 0.867212,0.86722 1.081835,2.21928 0.519172,3.27062 -0.844207,1.57742 -6.025978,2.3025 -9.148791,1.28018 z m 116.307304,-1.03752 c -2.16965,-2.16966 0.74046,-5.52768 3.32359,-3.83514 0.35133,0.2302 0.7754,0.83251 0.94239,1.33847 0.85556,2.59238 -2.31481,4.44784 -4.26598,2.49667 z M 35.677133,99.564957 c -1.59804,-0.78837 -1.89201,-2.73408 -0.6302,-4.1712 1.06507,-1.21305 3.764657,-2.94221 5.699678,-3.65081 1.906359,-0.6981 6.904488,-0.85122 8.827784,-0.27044 1.625509,0.49086 2.67017,1.59408 2.67017,2.81986 0,1.3092 -0.401076,1.96081 -1.485877,2.41407 -0.802322,0.33524 -1.080636,0.3325 -2.275684,-0.0224 -3.09619,-0.91946 -6.386995,-0.27954 -8.939956,1.73846 -1.184819,0.93655 -2.353623,1.57218 -2.859975,1.55535 -0.0997,-0.003 -0.55234,-0.18912 -1.00594,-0.41289 z"
       id="path21" />
  </g>
</svg>
