<?xml version="1.0" encoding="UTF-8" standalone="no"?>
<svg
   viewBox="0 0 399.92999 64.812708"
   version="1.1"
   id="svg864"
   sodipodi:docname="logo_name.svg"
   width="399.92999"
   height="64.812706"
   inkscape:version="1.1.1 (c3084ef, 2021-09-22)"
   xmlns:inkscape="http://www.inkscape.org/namespaces/inkscape"
   xmlns:sodipodi="http://sodipodi.sourceforge.net/DTD/sodipodi-0.dtd"
   xmlns:xlink="http://www.w3.org/1999/xlink"
   xmlns="http://www.w3.org/2000/svg"
   xmlns:svg="http://www.w3.org/2000/svg">
  <sodipodi:namedview
     id="namedview866"
     pagecolor="#ffffff"
     bordercolor="#666666"
     borderopacity="1.0"
     inkscape:pageshadow="2"
     inkscape:pageopacity="0.0"
     inkscape:pagecheckerboard="0"
     showgrid="false"
     inkscape:zoom="2.7481183"
     inkscape:cx="244.7129"
     inkscape:cy="-79.508949"
     inkscape:window-width="1312"
     inkscape:window-height="1081"
     inkscape:window-x="0"
     inkscape:window-y="25"
     inkscape:window-maximized="0"
     inkscape:current-layer="Layer_1" />
  <defs
     id="defs837">
    <linearGradient
       id="linearGradient2175"
       inkscape:swatch="solid">
      <stop
         style="stop-color:#082b5e;stop-opacity:1;"
         offset="0"
         id="stop2173" />
    </linearGradient>
    <style
       id="style824">.cls-1{isolation:isolate;}.cls-2{font-size:216.58px;font-family:Gilroy-Bold;font-weight:700;letter-spacing:-0.03em;}.cls-3{opacity:0.45;mix-blend-mode:multiply;}.cls-4{fill:url(#linear-gradient);}.cls-5{fill:url(#linear-gradient-2);}.cls-6{fill:url(#linear-gradient-3);}.cls-7{fill:url(#linear-gradient-4);}.cls-8{fill:url(#linear-gradient-5);}.cls-9{fill:url(#linear-gradient-6);}.cls-10{fill:url(#linear-gradient-7);}</style>
    <linearGradient
       id="linear-gradient"
       x1="205.34"
       y1="-0.46000001"
       x2="205.34"
       y2="201.91"
       gradientUnits="userSpaceOnUse">
      <stop
         offset="0"
         stop-color="#082b5e"
         id="stop826" />
      <stop
         offset="1"
         stop-color="#14213d"
         id="stop828" />
    </linearGradient>
    <linearGradient
       id="linear-gradient-2"
       x1="216.11"
       y1="-0.46000001"
       x2="216.11"
       y2="201.91"
       xlink:href="#linear-gradient" />
    <linearGradient
       id="linear-gradient-3"
       x1="113.25"
       y1="-0.46000001"
       x2="113.25"
       y2="201.91"
       xlink:href="#linear-gradient" />
    <linearGradient
       id="linear-gradient-4"
       x1="14.45"
       y1="264.25"
       x2="390.14001"
       y2="264.25"
       xlink:href="#linear-gradient-2-2" />
    <linearGradient
       id="linear-gradient-5"
       x1="14.45"
       y1="264.20999"
       x2="390.14001"
       y2="264.20999"
       xlink:href="#linear-gradient-2-2" />
    <linearGradient
       id="linear-gradient-6"
       x1="14.45"
       y1="264.89001"
       x2="390.14001"
       y2="264.89001"
       xlink:href="#linear-gradient" />
    <linearGradient
       id="linear-gradient-7"
       x1="14.45"
       y1="264.16"
       x2="390.14001"
       y2="264.16"
       xlink:href="#linear-gradient-2-2" />
    <linearGradient
       inkscape:collect="always"
       xlink:href="#linear-gradient-2-2"
       id="linearGradient1504"
       x1="14.45"
       y1="264.25"
       x2="390.14001"
       y2="264.25" />
    <linearGradient
       inkscape:collect="always"
       xlink:href="#linear-gradient-2-2"
       id="linearGradient1506"
       x1="14.45"
       y1="264.20999"
       x2="390.14001"
       y2="264.20999" />
    <linearGradient
       inkscape:collect="always"
       xlink:href="#linear-gradient-2-2"
       id="linearGradient2207"
       x1="134.12"
       y1="264.89191"
       x2="204.80482"
       y2="264.89191"
       gradientUnits="userSpaceOnUse" />
    <linearGradient
       id="linear-gradient-3-8"
       x1="435.84"
       y1="110.15"
       x2="435.84"
       y2="623.04999"
       xlink:href="#linear-gradient-2-2"
       gradientTransform="translate(-199.90615,-275.26211)" />
    <linearGradient
       id="linear-gradient-2-2"
       x1="408.53"
       y1="110.15"
       x2="408.53"
       y2="623.04999"
       gradientUnits="userSpaceOnUse">
      <stop
         offset="0"
         stop-color="#fca311"
         id="stop1989" />
      <stop
         offset="1"
         stop-color="#f4950c"
         id="stop1991" />
    </linearGradient>
  </defs>
  <g
     class="cls-1"
     id="g862"
     transform="translate(0.02,-232.39)">
    <g
       id="Layer_1"
       data-name="Layer 1">
      <text
         class="cls-2"
         transform="translate(107.3,227.26)"
         id="text839" />
      <path
         class="cls-7"
         d="m 64.9,275.29 a 24.9,24.9 0 0 1 0.26,3.5 q 0,9 -9.13,13.82 a 29.91,29.91 0 0 1 -7,2.51 45.07,45.07 0 0 1 -10,0.9 c -1.25,0 -2.43,0 -3.54,0 a 41.83,41.83 0 0 1 -4.9,-0.56 l -0.6,-0.08 -5.46,-1 -2.47,-0.42 c -1.76,-0.23 -3.2,-0.4 -4.31,-0.52 -1.11,-0.12 -2.26,-0.17 -3.45,-0.17 a 30,30 0 0 0 -9.89,2 L 3.13,295.78 1,292.27 A 24.61,24.61 0 0 0 6.35,283 q 1.59,-5.07 1.58,-14.2 v -3 L 7.85,264.69 7.59,258.38 7.42,255.31 7.33,254 A 26.54,26.54 0 0 0 6.06,245.52 30.13,30.13 0 0 0 2.22,238 a 8.58,8.58 0 0 0 -1,-1.4 c -0.49,-0.6 -0.9,-1.1 -1.24,-1.5 l 2.39,-2.47 a 30.43,30.43 0 0 0 9.38,2.47 34.84,34.84 0 0 0 3.92,0.26 39.61,39.61 0 0 0 7.25,-0.85 l 6.31,-1 a 58.71,58.71 0 0 1 10.41,-1 q 11,0 17.23,5 a 14.56,14.56 0 0 1 5.8,11.77 9.61,9.61 0 0 1 -1.84,6.31 Q 59,257.81 54,259.77 l -5.29,1.71 -2.47,0.51 2.9,0.25 q 13.97,1.89 15.76,13.05 z m -21.06,0.6 c -0.34,-3.92 -1.48,-6.74 -3.41,-8.44 -1.93,-1.7 -5.06,-2.56 -9.38,-2.56 a 12.54,12.54 0 0 0 -2.48,0.21 12.25,12.25 0 0 0 -2.39,0.81 l 0.34,10.92 0.18,2.05 q 1.35,11.76 7.5,11.77 a 10.68,10.68 0 0 0 3.67,-0.77 q 5.97,-2.22 5.97,-13.99 z m -1,-25.93 a 12.93,12.93 0 0 0 0.09,-1.79 q 0,-8.19 -7,-9.81 a 18.62,18.62 0 0 0 -2.56,-0.34 5.68,5.68 0 0 0 -5.21,2.86 c -1.13,1.91 -1.7,5.1 -1.7,9.59 v 8.36 l 2,0.09 c 0.91,0 1.78,0 2.6,0 0.82,0 1.61,0 2.35,0 3.3,0 5.7,-0.69 7.2,-2.09 1.5,-1.4 2.2,-3.63 2.2,-6.83 z"
         id="path849"
         style="fill:url(#linearGradient1504);fill-opacity:1.0" />
      <path
         class="cls-8"
         d="m 133.73,292.1 -1.79,3.58 -2.13,-0.69 a 33.58,33.58 0 0 0 -6.74,-1.66 71.52,71.52 0 0 0 -7.42,-0.3 21.17,21.17 0 0 0 -5.54,0.69 34.41,34.41 0 0 0 -5.38,2 l -3.49,-3.33 0.42,-0.51 0.94,-1 a 11.11,11.11 0 0 0 2.26,-3.63 15.29,15.29 0 0 0 0.56,-4.65 v -1.62 l -0.09,-0.25 -0.6,-3.5 -0.17,-0.6 -0.42,-2.22 -0.69,0.94 a 15.57,15.57 0 0 1 -3.75,3.5 7.49,7.49 0 0 1 -3.92,1 18.66,18.66 0 0 1 -2.77,-0.25 11.75,11.75 0 0 1 -3.8,-1.45 l -1.71,-1.2 -0.25,2.9 q 0,7.77 7.5,11.6 l 0.94,0.43 -2.3,3.75 -2.64,-1.11 a 26.2,26.2 0 0 0 -5.55,-1.32 45.85,45.85 0 0 0 -5.71,-0.38 14.83,14.83 0 0 0 -5.16,0.64 6.94,6.94 0 0 0 -2.86,2.26 l -3.33,-3.33 1.88,-2 a 56.14,56.14 0 0 0 5.42,-7.12 37.22,37.22 0 0 0 3.19,-6.53 35.33,35.33 0 0 0 1.37,-5.37 4.6,4.6 0 0 0 -3.07,-1.28 4.38,4.38 0 0 0 -4.26,2.9 l -0.52,1.45 q -4.61,-1.87 -4.6,-7.85 a 16.94,16.94 0 0 1 0.25,-2.73 7.13,7.13 0 0 1 1,-2.72 10.82,10.82 0 0 1 4.2,-4.31 12.9,12.9 0 0 1 6.36,-1.41 15.74,15.74 0 0 1 1.87,0.13 l 1.71,0.21 1.06,0.24 0.77,-2.22 a 32.9,32.9 0 0 0 1.45,-8.61 12.85,12.85 0 0 0 -2.39,-7.51 L 82.46,236.04 84.6,233 a 30.14,30.14 0 0 0 6,1.79 36.21,36.21 0 0 0 5.45,0.34 5.5,5.5 0 0 0 0.94,0.09 H 100 q 1,0 2.22,-0.09 l 2,-0.17 2.39,-0.17 a 20.53,20.53 0 0 0 6.14,-0.85 c 0.11,-0.06 1.17,-0.46 3.16,-1.19 l 2.81,2.89 -0.85,1 a 8.84,8.84 0 0 0 -1.88,5.46 73.35,73.35 0 0 0 1.28,10.06 65.2,65.2 0 0 0 2.13,9 l 2.13,6.82 0.77,2.3 1.37,4.52 a 64.1,64.1 0 0 0 2.56,6.87 29.54,29.54 0 0 0 3.07,5.33 28.21,28.21 0 0 0 2,2.64 c 0.78,0.83 1.58,1.66 2.43,2.46 z M 102.09,268 A 6.57,6.57 0 0 0 102,266.17 c -0.11,-0.71 -0.37,-1.81 -0.76,-3.29 l -1.2,-4.69 -0.08,-0.34 -0.86,-2.85 -0.59,-2 -3.07,-8.36 -2.22,0.08 -0.34,1.63 -0.34,2 -0.34,2 -0.35,1.65 -0.93,3.58 a 14.58,14.58 0 0 0 -0.77,3.58 3.39,3.39 0 0 0 0.43,1.71 c 0.39,0.51 0.71,0.94 0.93,1.28 l 2.31,3.24 0.25,0.43 2.39,3.07 a 4.61,4.61 0 0 0 2.05,1.53 2.45,2.45 0 0 0 1.11,0.26 2.37,2.37 0 0 0 1.7,-0.77 2.65,2.65 0 0 0 0.77,-1.91 z"
         id="path851"
         style="fill:url(#linearGradient1506);fill-opacity:1.0" />
      <path
         class="cls-9"
         d="m 203.92,288.34 a 12.46,12.46 0 0 1 -7.59,7.85 14.83,14.83 0 0 1 -6,1 25.59,25.59 0 0 1 -5.37,-0.59 q -8.7,-1.71 -12,-11 c -0.34,-1 -0.59,-1.84 -0.76,-2.47 -0.17,-0.63 -0.46,-2.22 -0.86,-4.78 L 171,276.48 c -0.74,-3.64 -1.7,-6.09 -2.9,-7.34 -1.2,-1.25 -3.21,-1.87 -6,-1.87 h -1.11 l -0.17,2.47 q -0.26,3.24 -0.26,5.8 a 26.62,26.62 0 0 0 1.41,9.55 13.58,13.58 0 0 0 4.39,5.89 l -2.22,4.94 a 24.8,24.8 0 0 0 -8.65,-2.77 65.09,65.09 0 0 0 -7.89,-0.55 18.65,18.65 0 0 0 -6.83,1.11 20.28,20.28 0 0 0 -3.66,2 l -2.31,-4.18 a 24,24 0 0 0 3.42,-5.5 40,40 0 0 0 2.38,-7.81 c 0.4,-2.1 0.69,-3.91 0.86,-5.41 0.17,-1.5 0.25,-4.34 0.25,-8.49 v -1.45 l -0.25,-4.52 -0.26,-4.09 -0.17,-3.07 -0.43,-3.5 a 23,23 0 0 0 -2.26,-7.29 9.5,9.5 0 0 0 -4.22,-3.8 l 2,-3.83 2.73,0.51 c 1.76,0.34 3.87,0.62 6.31,0.85 2.44,0.23 5.18,0.34 8.19,0.34 l 0.26,-0.08 6.22,-0.77 1.45,-0.17 q 5.12,-0.6 7.59,-0.73 c 1.65,-0.08 3.59,-0.13 5.8,-0.13 h 1.11 a 34.61,34.61 0 0 1 8.49,0.86 21.41,21.41 0 0 1 6.1,2.64 22.06,22.06 0 0 1 6.31,5.46 13.3,13.3 0 0 1 2.47,6.31 14,14 0 0 1 0.09,1.88 12.87,12.87 0 0 1 -1.24,5.58 13.07,13.07 0 0 1 -3.75,4.61 c -1.68,1.34 -4.31,2.37 -7.89,3.11 l -3.92,0.6 -0.94,0.17 -5.29,0.94 2.13,0.17 q 6,0.86 8.78,2.86 a 14.05,14.05 0 0 1 4.61,6.6 l 0.26,0.69 1,2.73 a 12.18,12.18 0 0 0 0.81,2 8.26,8.26 0 0 0 1,1.36 2.72,2.72 0 0 0 1.71,0.69 2,2 0 0 0 2,-1.16 6.2,6.2 0 0 0 0.68,-1.74 10,10 0 0 0 0.09,-1.45 4,4 0 0 0 -0.35,-1.8 5.19,5.19 0 0 1 4.07,2.3 9.17,9.17 0 0 1 1.8,5.76 13.13,13.13 0 0 1 -0.88,4.58 z m -26.61,-37.87 a 12.93,12.93 0 0 0 0.09,-1.79 13.45,13.45 0 0 0 -1.2,-5.84 7.7,7.7 0 0 0 -7.16,-4.73 6.78,6.78 0 0 0 -5.12,2.26 11.93,11.93 0 0 0 -2.81,6.44 c -0.17,1.25 -0.36,2.78 -0.56,4.6 a 53.26,53.26 0 0 0 -0.3,5.8 l 0.09,3.33 2,0.25 q 8.87,0 12.2,-3.66 a 11.55,11.55 0 0 0 2,-3 11.09,11.09 0 0 0 0.77,-3.66 z"
         id="path853"
         style="fill:url(#linearGradient2207);fill-opacity:1.0" />
      <path
         class="cls-10"
         d="m 265.76,232.39 a 12,12 0 0 1 -0.43,7.59 16.09,16.09 0 0 1 -5.25,7.59 14,14 0 0 1 -8.82,2.65 h -2 v 13.39 l 0.18,6.91 0.08,1.19 0.34,5.46 c 0,3.64 0.37,6.25 1.11,7.85 a 18.31,18.31 0 0 0 4.78,5.54 l 1.19,0.94 -1.62,4.43 -1.19,-0.34 -1.54,-0.51 -1.19,-0.34 -1.62,-0.43 a 27.94,27.94 0 0 0 -11.6,-0.85 l -4.18,0.43 q -3.59,0.42 -4.86,0.72 a 20.27,20.27 0 0 0 -3.41,1.24 l -2.31,-4.52 a 10.49,10.49 0 0 0 6.1,-8 q 1,-5.54 1,-28.14 l -0.25,-4.18 -0.09,-1 -0.26,-2.3 -1.4,-0.47 a 14.7,14.7 0 0 0 -1.75,-0.42 19.39,19.39 0 0 0 -2.94,-0.3 c -1.23,-0.06 -2.32,-0.09 -3.29,-0.09 a 14.17,14.17 0 0 0 -6.73,1.28 6.2,6.2 0 0 0 -3,3.28 10.32,10.32 0 0 0 -0.73,3.46 4.39,4.39 0 0 0 0.43,2 3.11,3.11 0 0 0 3,1.88 3.5,3.5 0 0 0 1.79,-0.55 2,2 0 0 0 0.94,-1.92 2.62,2.62 0 0 0 -0.34,-1.11 2.24,2.24 0 0 0 -2,-1.11 4.3,4.3 0 0 1 1.44,-2.13 5.57,5.57 0 0 1 3.67,-1.2 24.64,24.64 0 0 1 2.48,0.17 5,5 0 0 1 3,1.84 6.05,6.05 0 0 1 1.5,4.22 10,10 0 0 1 -0.6,3.33 8.3,8.3 0 0 1 -3.07,4.22 9.67,9.67 0 0 1 -5.63,1.49 10.47,10.47 0 0 1 -7.42,-2.77 q -3,-2.78 -4.09,-8.32 a 17.63,17.63 0 0 1 -0.35,-3.66 9.61,9.61 0 0 1 0.09,-1.54 q 1,-8.35 6.82,-12.45 6.23,-4.35 18.68,-4.35 c 1.93,0 3.28,0 4,0.08 0.72,0.08 2.4,0.26 4.91,0.6 l 2.13,0.34 4.35,0.6 2.56,0.34 c 2,0.17 3.75,0.26 5.28,0.26 a 31.63,31.63 0 0 0 12.11,-2.32 z"
         id="path855"
         style="fill:url(#linear-gradient-7);fill-opacity:1.0" />
      <path
         class="cls-8"
         d="m 334.75,292.1 -1.75,3.58 -2.13,-0.69 a 33.42,33.42 0 0 0 -6.74,-1.66 71.52,71.52 0 0 0 -7.42,-0.3 21.17,21.17 0 0 0 -5.54,0.69 34.41,34.41 0 0 0 -5.38,2 l -3.49,-3.33 0.42,-0.51 0.94,-1 a 11.11,11.11 0 0 0 2.26,-3.63 15.29,15.29 0 0 0 0.56,-4.65 v -1.62 l -0.09,-0.25 -0.6,-3.5 -0.17,-0.6 -0.42,-2.22 -0.68,0.94 a 15.77,15.77 0 0 1 -3.76,3.5 7.49,7.49 0 0 1 -3.92,1 18.77,18.77 0 0 1 -2.77,-0.25 11.75,11.75 0 0 1 -3.8,-1.45 l -1.7,-1.2 -0.26,2.9 q 0,7.77 7.51,11.6 l 0.94,0.43 -2.31,3.75 -2.64,-1.11 a 26.2,26.2 0 0 0 -5.55,-1.32 45.85,45.85 0 0 0 -5.71,-0.38 14.83,14.83 0 0 0 -5.16,0.64 7,7 0 0 0 -2.86,2.26 l -3.32,-3.33 1.87,-2 a 56.14,56.14 0 0 0 5.42,-7.12 38,38 0 0 0 3.2,-6.53 35.25,35.25 0 0 0 1.36,-5.37 4.6,4.6 0 0 0 -3.07,-1.28 4.38,4.38 0 0 0 -4.26,2.9 l -0.51,1.45 q -4.62,-1.87 -4.61,-7.85 a 16.94,16.94 0 0 1 0.25,-2.73 7.3,7.3 0 0 1 1,-2.72 10.82,10.82 0 0 1 4.13,-4.31 12.9,12.9 0 0 1 6.36,-1.41 15.89,15.89 0 0 1 1.88,0.13 l 1.7,0.21 1.07,0.24 0.77,-2.22 a 32.9,32.9 0 0 0 1.45,-8.61 12.85,12.85 0 0 0 -2.39,-7.51 l -1.37,-1.62 2.14,-3.07 a 29.89,29.89 0 0 0 6,1.79 36.36,36.36 0 0 0 5.46,0.34 5.39,5.39 0 0 0 0.93,0.09 h 3.07 c 0.69,0 1.42,0 2.22,-0.09 l 2,-0.17 2.39,-0.17 a 20.48,20.48 0 0 0 6.14,-0.85 c 0.11,-0.06 1.17,-0.46 3.16,-1.19 l 2.81,2.89 -0.85,1 a 8.84,8.84 0 0 0 -1.88,5.46 73.35,73.35 0 0 0 1.28,10.06 65.2,65.2 0 0 0 2.13,9 l 2.14,6.82 0.76,2.3 1.37,4.52 a 66.33,66.33 0 0 0 2.56,6.87 29.54,29.54 0 0 0 3.07,5.33 28.33,28.33 0 0 0 2.05,2.64 32.51,32.51 0 0 0 2.34,2.49 z M 303.11,268 a 6.92,6.92 0 0 0 -0.08,-1.83 c -0.12,-0.71 -0.37,-1.81 -0.77,-3.29 l -1.2,-4.69 -0.08,-0.34 -0.85,-2.81 -0.6,-2.05 -3.07,-8.36 -2.22,0.08 -0.34,1.63 -0.34,2 -0.34,2 -0.34,1.71 -0.94,3.58 a 15.08,15.08 0 0 0 -0.77,3.58 3.39,3.39 0 0 0 0.43,1.71 c 0.39,0.51 0.71,0.94 0.94,1.28 l 2.3,3.24 0.25,0.43 2.39,3.07 a 4.67,4.67 0 0 0 2,1.53 2.45,2.45 0 0 0 1.11,0.26 2.37,2.37 0 0 0 1.7,-0.77 2.61,2.61 0 0 0 0.82,-1.96 z"
         id="path857"
         style="fill:url(#linear-gradient-5);fill-opacity:1.0" />
      <path
         class="cls-7"
         d="m 399.66,275.29 a 24.85,24.85 0 0 1 0.25,3.5 q 0,9 -9.12,13.82 a 30.16,30.16 0 0 1 -7,2.51 45.07,45.07 0 0 1 -10,0.9 c -1.25,0 -2.43,0 -3.54,0 a 42.06,42.06 0 0 1 -4.9,-0.56 l -0.6,-0.08 -5.45,-1 -2.48,-0.42 c -1.76,-0.23 -3.2,-0.4 -4.31,-0.52 -1.11,-0.12 -2.26,-0.17 -3.45,-0.17 a 30,30 0 0 0 -9.89,2 l -1.28,0.51 -2.13,-3.41 a 24.88,24.88 0 0 0 5.33,-9.26 q 1.58,-5.07 1.57,-14.2 v -3 l -0.08,-1.11 -0.26,-6.31 -0.17,-3.07 -0.08,-1.37 a 26.54,26.54 0 0 0 -1.28,-8.48 29.8,29.8 0 0 0 -3.79,-7.57 8.58,8.58 0 0 0 -1,-1.4 c -0.48,-0.6 -0.9,-1.1 -1.24,-1.5 l 2.39,-2.47 a 30.51,30.51 0 0 0 9.38,2.47 35,35 0 0 0 3.93,0.26 39.71,39.71 0 0 0 7.25,-0.85 l 6.31,-1 a 58.6,58.6 0 0 1 10.4,-1 q 11,0 17.23,5 a 14.53,14.53 0 0 1 5.8,11.77 9.67,9.67 0 0 1 -1.83,6.31 q -1.85,2.22 -6.87,4.18 l -5.29,1.71 -2.46,0.52 2.9,0.25 q 13.96,1.88 15.76,13.04 z m -21.07,0.6 c -0.34,-3.92 -1.48,-6.74 -3.41,-8.44 -1.93,-1.7 -5.06,-2.56 -9.38,-2.56 a 12.61,12.61 0 0 0 -2.48,0.21 12,12 0 0 0 -2.38,0.81 l 0.34,10.92 0.17,2.05 q 1.37,11.76 7.5,11.77 a 10.64,10.64 0 0 0 3.67,-0.77 q 5.97,-2.22 5.97,-13.99 z m -1,-25.93 a 15.24,15.24 0 0 0 0.08,-1.79 q 0,-8.19 -7,-9.81 a 18.62,18.62 0 0 0 -2.56,-0.34 5.65,5.65 0 0 0 -5.2,2.86 c -1.14,1.91 -1.71,5.1 -1.71,9.59 v 8.36 l 2,0.09 c 0.91,0 1.78,0 2.6,0 0.82,0 1.61,0 2.35,0 3.3,0 5.7,-0.69 7.21,-2.09 1.51,-1.4 2.21,-3.63 2.21,-6.83 z"
         id="path859"
         style="fill:url(#linear-gradient-4);fill-opacity:1.0" />
    </g>
  </g>
</svg>
