<?xml version="1.0" encoding="UTF-8" standalone="no"?>
<svg
   viewBox="0 0 399.91 297.21"
   version="1.1"
   id="svg864"
   sodipodi:docname="yellow_logo_no_bg.svg"
   inkscape:export-filename="/Users/johanforsell/Developer/BarTab/BarTab brand identity/icon set/yellow_logo_no_bg.png"
   inkscape:export-xdpi="328.604"
   inkscape:export-ydpi="328.604"
   inkscape:version="1.1.1 (c3084ef, 2021-09-22)"
   xmlns:inkscape="http://www.inkscape.org/namespaces/inkscape"
   xmlns:sodipodi="http://sodipodi.sourceforge.net/DTD/sodipodi-0.dtd"
   xmlns:xlink="http://www.w3.org/1999/xlink"
   xmlns="http://www.w3.org/2000/svg"
   xmlns:svg="http://www.w3.org/2000/svg">
  <sodipodi:namedview
     id="namedview866"
     pagecolor="#ffffff"
     bordercolor="#666666"
     borderopacity="1.0"
     inkscape:pageshadow="2"
     inkscape:pageopacity="0.0"
     inkscape:pagecheckerboard="0"
     showgrid="false"
     inkscape:zoom="2.7481183"
     inkscape:cx="294.56519"
     inkscape:cy="153.37768"
     inkscape:window-width="1312"
     inkscape:window-height="1081"
     inkscape:window-x="0"
     inkscape:window-y="25"
     inkscape:window-maximized="0"
     inkscape:current-layer="Layer_1" />
  <defs
     id="defs837">
    <style
       id="style824">.cls-1{isolation:isolate;}.cls-2{font-size:216.58px;font-family:Gilroy-Bold;font-weight:700;letter-spacing:-0.03em;}.cls-3{opacity:0.45;mix-blend-mode:multiply;}.cls-4{fill:url(#linear-gradient);}.cls-5{fill:url(#linear-gradient-2);}.cls-6{fill:url(#linear-gradient-3);}.cls-7{fill:url(#linear-gradient-4);}.cls-8{fill:url(#linear-gradient-5);}.cls-9{fill:url(#linear-gradient-6);}.cls-10{fill:url(#linear-gradient-7);}</style>
    <linearGradient
       id="linear-gradient"
       x1="205.34"
       y1="-0.46"
       x2="205.34"
       y2="201.91"
       gradientUnits="userSpaceOnUse">
      <stop
         offset="0"
         stop-color="#082b5e"
         id="stop826" />
      <stop
         offset="1"
         stop-color="#14213d"
         id="stop828" />
    </linearGradient>
    <linearGradient
       id="linear-gradient-2"
       x1="216.11"
       y1="-0.46000001"
       x2="216.11"
       y2="201.91"
       xlink:href="#linear-gradient-2-9" />
    <linearGradient
       id="linear-gradient-3"
       x1="113.25"
       y1="-0.46000001"
       x2="113.25"
       y2="201.91"
       xlink:href="#linear-gradient-2-9" />
    <linearGradient
       id="linear-gradient-4"
       x1="14.45"
       y1="264.25"
       x2="390.14001"
       y2="264.25"
       xlink:href="#linear-gradient-2-9" />
    <linearGradient
       id="linear-gradient-5"
       x1="14.45"
       y1="264.20999"
       x2="390.14001"
       y2="264.20999"
       xlink:href="#linear-gradient-2-9" />
    <linearGradient
       id="linear-gradient-6"
       x1="14.45"
       y1="264.89001"
       x2="390.14001"
       y2="264.89001"
       xlink:href="#linear-gradient-2-9" />
    <linearGradient
       id="linear-gradient-7"
       x1="14.45"
       y1="264.16"
       x2="390.14001"
       y2="264.16"
       xlink:href="#linear-gradient-2-9" />
    <linearGradient
       id="linear-gradient-2-9"
       x1="408.53"
       y1="110.15"
       x2="408.53"
       y2="623.04999"
       gradientUnits="userSpaceOnUse">
      <stop
         offset="0"
         stop-color="#fca311"
         id="stop1989" />
      <stop
         offset="1"
         stop-color="#f4950c"
         id="stop1991" />
    </linearGradient>
    <linearGradient
       inkscape:collect="always"
       xlink:href="#linear-gradient-2-9"
       id="linearGradient3080"
       gradientUnits="userSpaceOnUse"
       x1="205.34"
       y1="-0.46000001"
       x2="205.34"
       y2="201.91" />
    <linearGradient
       inkscape:collect="always"
       xlink:href="#linear-gradient-2-9"
       id="linearGradient3082"
       x1="14.45"
       y1="264.20999"
       x2="390.14001"
       y2="264.20999" />
    <linearGradient
       inkscape:collect="always"
       xlink:href="#linear-gradient-2-9"
       id="linearGradient3084"
       x1="14.45"
       y1="264.25"
       x2="390.14001"
       y2="264.25" />
  </defs>
  <g
     class="cls-1"
     id="g862">
    <g
       id="Layer_1"
       data-name="Layer 1">
      <text
         class="cls-2"
         transform="translate(107.3 227.26)"
         id="text839" />
      <path
         class="cls-4"
         d="M149.57,44.85c-.57-5.05.42-8.78,3-11.41,5.63-5.64,17.83-5.69,22-5.23l4.67.53,1.48-4.47a17.11,17.11,0,0,1,11-11.36,23.55,23.55,0,0,1,8.49-1.26l.5,0c13.46.06,19.86,16,19.91,16.18l2.3,6L228.76,31c5.84-2.94,10.47-4.48,14.13-4.69,6.52-.37,11.6,1.14,14.7,4.36,3.62,3.77,3.92,9.3,3.54,13.28a14.35,14.35,0,0,1-1.57,5.78,2,2,0,0,1-2.12,1.19L257,62.49h.59c8.38,0,14-6.48,15.05-17.46.89-9.18-1.43-16.94-6.72-22.44-5.52-5.74-13.73-8.48-23.73-7.9a40.67,40.67,0,0,0-13.41,3.47C224.73,11.23,216,.26,201.11.08c-7.7-.61-22.61,2.21-29.59,16.35-6.72-.1-19.21.91-27.1,8.8-3.58,3.58-7.6,10.13-6.38,20.92Z"
         id="path843"
         style="fill-opacity:1;fill:url(#linearGradient3080)" />
      <path
         class="cls-5"
         d="M298.23,85.73a19.78,19.78,0,0,0-19-17.49c-9.75-.38-19.88-.52-19.88-.52-2.06-.07-3.15-.73-3.72-1.47,0-11.15.07-18.14.07-18.14-30.32-3.19-58.94-3-58.94-3s-28.62.13-58.91,3.6c0,0,2,85.88-4.75,135.69a8.72,8.72,0,0,0,2.74,7.67c5.71,5.15,21.11,13.13,61.66,12.94s55.88-8.31,61.54-13.52a8.7,8.7,0,0,0,2.68-7.69c-.88-6.05-1.63-12.63-2.28-19.52a12.38,12.38,0,0,1,.27-2.07,8.14,8.14,0,0,1,4.34-5.42,88.38,88.38,0,0,0,15.1-9.05c11.19-8.67,18.87-21,19.78-34.86A147.47,147.47,0,0,0,298.23,85.73Zm-49.91,66.89c-1.6.45-3.2.88-4.79,1.27-2-23.11-2.46-43.26-2.53-61.45l4.76-.43C246.1,110.4,246.82,132.19,248.32,152.62ZM196.79,55.15c.25,0,22.89-.07,48.73,2.13,0,4.39,0,10.12,0,16.82-41.48,4.07-81.73,2.38-97.33.62,0-6.77-.07-12.56-.13-17C173.89,55.29,196.54,55.15,196.79,55.15Zm28,102.45c-1.56.23-3.1.44-4.64.64-1.34-22.16-2.2-49.55-2.6-64.32l4.66-.21C222.62,108.33,223.48,135.62,224.8,157.6Zm-24.27,2.18c-1.58.06-3.13.09-4.66.11l-1.28-65.42,4.66,0ZM175.79,94.26c-.06,14.38-.29,42.27-1.13,64.91-1.59-.13-3.15-.27-4.65-.42.82-22.5,1.05-50.4,1.12-64.63Zm-27.64-1.59c1.47.15,3.06.29,4.78.43.09,18.55-.21,39.15-2.09,62.86-1.9-.37-3.5-.71-4.8-1C147.44,134.05,148,111.57,148.15,92.67Zm101.64,93.12c-5.42,3.36-19.37,8.93-52.35,9.08s-46.87-5.24-52.37-8.55a3.43,3.43,0,0,1-1.64-3.36c.35-2.74.67-5.57,1-8.47,1.37.29,2.9.6,4.59.92-.28,2.55-.58,5.12-.9,7.73,3,1.58,9,3.9,19.84,5.5.41-2.52.77-6.09,1.09-10.4,1.5.15,3,.29,4.63.41-.32,4.32-.69,7.95-1.11,10.59a212.12,212.12,0,0,0,23.93,1.18l-.22-11c1.53,0,3.09-.06,4.66-.11l.22,11.12a202.44,202.44,0,0,0,22-1.48,112.36,112.36,0,0,1-1.53-11.26c1.53-.19,3.07-.39,4.62-.61a101.9,101.9,0,0,0,1.53,11.19c10.23-1.68,15.95-4,18.89-5.54-.41-3.15-.8-6.25-1.15-9.3,1.51-.36,3-.74,4.57-1.14.38,3.52.79,6.94,1.24,10.22A3.37,3.37,0,0,1,249.79,185.79Zm12.61-43.27c-2.48,1.48-3.85,1.36-4.6.6-1.23-20-1.79-40.68-2-57.65.08-.48.13-.81.15-.91a3.34,3.34,0,0,1,3.24-2.8c5.91-.3,12.26-.31,17.23-.23a9.46,9.46,0,0,1,9.38,9.14l.5,12C287.18,131.39,262.4,142.52,262.4,142.52Z"
         id="path845"
         style="fill-opacity:1.0" />
      <path
         class="cls-6"
         d="M120.1,80.67l-7.52,6.45-1,.88a3,3,0,0,1-4.21,0q-4-3.37-7.92-6.79l-.64-.54L95.9,83.13c-1.85,1.59-3.7,3.16-5.53,4.76a3.09,3.09,0,0,1-5.31-2.44q0-25.7,0-51.37a12.16,12.16,0,0,1,10.2-12.23,13.22,13.22,0,0,1,2.35-.18H139a3.4,3.4,0,0,1,2.44.56c-.3.14-.56.43-.8.54-5,3.91-7.67,11.47-7.27,23.48.45,13.34,0,30.1,0,39.07,0,2-1,3.29-2.72,3.51a3.24,3.24,0,0,1-2.6-.94c-2.65-2.28-4.8-4.56-7.46-6.84ZM109.47,64.42c3,0,6,0,8.93,0a3.06,3.06,0,1,0,0-6.11q-9,0-17.93,0a3.06,3.06,0,1,0,.06,6.11Zm0-12.2h8.64a6.35,6.35,0,0,0,1.07-.08,3,3,0,0,0,2.47-3.26,3,3,0,0,0-2.87-2.76q-9.27,0-18.56,0a3,3,0,0,0-2.75,2,3.06,3.06,0,0,0,3.08,4.05C103.48,52.23,106.46,52.22,109.43,52.22Zm0-12.24h0c2.93,0,5.85,0,8.78,0a4.79,4.79,0,0,0,1.2-.11,3,3,0,0,0,2.19-3.4,3,3,0,0,0-2.9-2.56c-2.15,0-4.29,0-6.43,0H100.48a3,3,0,0,0-3,1.83A3,3,0,0,0,100.28,40C103.33,40,106.37,40,109.42,40Z"
         id="path847"
         style="fill-opacity:1.0" />
      <path
         class="cls-7"
         d="M64.9,275.29a24.9,24.9,0,0,1,.26,3.5q0,9-9.13,13.82a29.91,29.91,0,0,1-7,2.51,45.07,45.07,0,0,1-10,.9c-1.25,0-2.43,0-3.54,0a41.83,41.83,0,0,1-4.9-.56l-.6-.08-5.46-1-2.47-.42c-1.76-.23-3.2-.4-4.31-.52s-2.26-.17-3.45-.17a30,30,0,0,0-9.89,2l-1.28.51L1,292.27A24.61,24.61,0,0,0,6.35,283q1.59-5.07,1.58-14.2v-3l-.08-1.11-.26-6.31-.17-3.07L7.33,254a26.54,26.54,0,0,0-1.27-8.48A30.13,30.13,0,0,0,2.22,238a8.58,8.58,0,0,0-1-1.4c-.49-.6-.9-1.1-1.24-1.5l2.39-2.47a30.43,30.43,0,0,0,9.38,2.47,34.84,34.84,0,0,0,3.92.26,39.61,39.61,0,0,0,7.25-.85l6.31-1a58.71,58.71,0,0,1,10.41-1q11,0,17.23,5a14.56,14.56,0,0,1,5.8,11.77,9.61,9.61,0,0,1-1.84,6.31Q59,257.81,54,259.77l-5.29,1.71-2.47.51,2.9.25Q63.11,264.13,64.9,275.29Zm-21.06.6c-.34-3.92-1.48-6.74-3.41-8.44s-5.06-2.56-9.38-2.56a12.54,12.54,0,0,0-2.48.21,12.25,12.25,0,0,0-2.39.81l.34,10.92.18,2.05q1.35,11.76,7.5,11.77a10.68,10.68,0,0,0,3.67-.77Q43.84,287.66,43.84,275.89Zm-1-25.93a12.93,12.93,0,0,0,.09-1.79q0-8.19-7-9.81a18.62,18.62,0,0,0-2.56-.34,5.68,5.68,0,0,0-5.21,2.86c-1.13,1.91-1.7,5.1-1.7,9.59v8.36l2,.09c.91,0,1.78,0,2.6,0s1.61,0,2.35,0c3.3,0,5.7-.69,7.2-2.09S42.81,253.2,42.81,250Z"
         id="path849"
         style="fill-opacity:1;fill:url(#linearGradient3084)" />
      <path
         class="cls-8"
         d="M133.73,292.1l-1.79,3.58-2.13-.69a33.58,33.58,0,0,0-6.74-1.66,71.52,71.52,0,0,0-7.42-.3,21.17,21.17,0,0,0-5.54.69,34.41,34.41,0,0,0-5.38,2l-3.49-3.33.42-.51.94-1a11.11,11.11,0,0,0,2.26-3.63,15.29,15.29,0,0,0,.56-4.65v-1.62l-.09-.25-.6-3.5-.17-.6-.42-2.22-.69.94a15.57,15.57,0,0,1-3.75,3.5,7.49,7.49,0,0,1-3.92,1,18.66,18.66,0,0,1-2.77-.25,11.75,11.75,0,0,1-3.8-1.45l-1.71-1.2-.25,2.9q0,7.77,7.5,11.6l.94.43-2.3,3.75-2.64-1.11a26.2,26.2,0,0,0-5.55-1.32,45.85,45.85,0,0,0-5.71-.38,14.83,14.83,0,0,0-5.16.64,6.94,6.94,0,0,0-2.86,2.26l-3.33-3.33,1.88-2a56.14,56.14,0,0,0,5.42-7.12,37.22,37.22,0,0,0,3.19-6.53A35.33,35.33,0,0,0,80,271.37a4.6,4.6,0,0,0-3.07-1.28,4.38,4.38,0,0,0-4.26,2.9l-.52,1.45q-4.61-1.87-4.6-7.85a16.94,16.94,0,0,1,.25-2.73,7.13,7.13,0,0,1,1-2.72A10.82,10.82,0,0,1,73,256.83a12.9,12.9,0,0,1,6.36-1.41,15.74,15.74,0,0,1,1.87.13l1.71.21L84,256l.77-2.22a32.9,32.9,0,0,0,1.45-8.61,12.85,12.85,0,0,0-2.39-7.51l-1.37-1.62L84.6,233a30.14,30.14,0,0,0,6,1.79,36.21,36.21,0,0,0,5.45.34,5.5,5.5,0,0,0,.94.09H100q1,0,2.22-.09l2-.17,2.39-.17a20.53,20.53,0,0,0,6.14-.85c.11-.06,1.17-.46,3.16-1.19l2.81,2.89-.85,1a8.84,8.84,0,0,0-1.88,5.46,73.35,73.35,0,0,0,1.28,10.06,65.2,65.2,0,0,0,2.13,9l2.13,6.82.77,2.3,1.37,4.52a64.1,64.1,0,0,0,2.56,6.87A29.54,29.54,0,0,0,129.3,287a28.21,28.21,0,0,0,2,2.64C132.08,290.47,132.88,291.3,133.73,292.1ZM102.09,268a6.57,6.57,0,0,0-.09-1.83c-.11-.71-.37-1.81-.76-3.29l-1.2-4.69-.08-.34L99.1,255,98.51,253l-3.07-8.36-2.22.08-.34,1.63-.34,2-.34,2L91.85,252l-.93,3.58a14.58,14.58,0,0,0-.77,3.58,3.39,3.39,0,0,0,.43,1.71c.39.51.71.94.93,1.28l2.31,3.24.25.43,2.39,3.07a4.61,4.61,0,0,0,2.05,1.53,2.45,2.45,0,0,0,1.11.26,2.37,2.37,0,0,0,1.7-.77A2.65,2.65,0,0,0,102.09,268Z"
         id="path851"
         style="fill-opacity:1;fill:url(#linearGradient3082)" />
      <path
         class="cls-9"
         d="M203.92,288.34a12.46,12.46,0,0,1-7.59,7.85,14.83,14.83,0,0,1-6,1,25.59,25.59,0,0,1-5.37-.59q-8.7-1.71-12-11c-.34-1-.59-1.84-.76-2.47s-.46-2.22-.86-4.78l-.34-1.87c-.74-3.64-1.7-6.09-2.9-7.34s-3.21-1.87-6-1.87h-1.11l-.17,2.47q-.26,3.24-.26,5.8a26.62,26.62,0,0,0,1.41,9.55,13.58,13.58,0,0,0,4.39,5.89l-2.22,4.94a24.8,24.8,0,0,0-8.65-2.77,65.09,65.09,0,0,0-7.89-.55,18.65,18.65,0,0,0-6.83,1.11,20.28,20.28,0,0,0-3.66,2l-2.31-4.18a24,24,0,0,0,3.42-5.5,40,40,0,0,0,2.38-7.81c.4-2.1.69-3.91.86-5.41s.25-4.34.25-8.49v-1.45l-.25-4.52-.26-4.09-.17-3.07-.43-3.5a23,23,0,0,0-2.26-7.29,9.5,9.5,0,0,0-4.22-3.8l2-3.83,2.73.51c1.76.34,3.87.62,6.31.85s5.18.34,8.19.34l.26-.08,6.22-.77,1.45-.17q5.12-.6,7.59-.73c1.65-.08,3.59-.13,5.8-.13h1.11a34.61,34.61,0,0,1,8.49.86,21.41,21.41,0,0,1,6.1,2.64,22.06,22.06,0,0,1,6.31,5.46,13.3,13.3,0,0,1,2.47,6.31,14,14,0,0,1,.09,1.88,12.87,12.87,0,0,1-1.24,5.58,13.07,13.07,0,0,1-3.75,4.61c-1.68,1.34-4.31,2.37-7.89,3.11l-3.92.6-.94.17-5.29.94,2.13.17q6,.86,8.78,2.86a14.05,14.05,0,0,1,4.61,6.6l.26.69,1,2.73a12.18,12.18,0,0,0,.81,2,8.26,8.26,0,0,0,1,1.36,2.72,2.72,0,0,0,1.71.69,2,2,0,0,0,2-1.16,6.2,6.2,0,0,0,.68-1.74,10,10,0,0,0,.09-1.45,4,4,0,0,0-.35-1.8A5.19,5.19,0,0,1,203,278a9.17,9.17,0,0,1,1.8,5.76A13.13,13.13,0,0,1,203.92,288.34Zm-26.61-37.87a12.93,12.93,0,0,0,.09-1.79,13.45,13.45,0,0,0-1.2-5.84,7.7,7.7,0,0,0-7.16-4.73,6.78,6.78,0,0,0-5.12,2.26,11.93,11.93,0,0,0-2.81,6.44c-.17,1.25-.36,2.78-.56,4.6a53.26,53.26,0,0,0-.3,5.8l.09,3.33,2,.25q8.87,0,12.2-3.66a11.55,11.55,0,0,0,2-3A11.09,11.09,0,0,0,177.31,250.47Z"
         id="path853"
         style="fill-opacity:1.0" />
      <path
         class="cls-10"
         d="M265.76,232.39a12,12,0,0,1-.43,7.59,16.09,16.09,0,0,1-5.25,7.59,14,14,0,0,1-8.82,2.65h-2v13.39l.18,6.91.08,1.19.34,5.46c0,3.64.37,6.25,1.11,7.85a18.31,18.31,0,0,0,4.78,5.54l1.19.94-1.62,4.43-1.19-.34-1.54-.51-1.19-.34-1.62-.43a27.94,27.94,0,0,0-11.6-.85l-4.18.43q-3.59.42-4.86.72a20.27,20.27,0,0,0-3.41,1.24l-2.31-4.52a10.49,10.49,0,0,0,6.1-8q1-5.54,1-28.14l-.25-4.18-.09-1-.26-2.3-1.4-.47a14.7,14.7,0,0,0-1.75-.42,19.39,19.39,0,0,0-2.94-.3c-1.23-.06-2.32-.09-3.29-.09a14.17,14.17,0,0,0-6.73,1.28,6.2,6.2,0,0,0-3,3.28,10.32,10.32,0,0,0-.73,3.46,4.39,4.39,0,0,0,.43,2,3.11,3.11,0,0,0,3,1.88,3.5,3.5,0,0,0,1.79-.55,2,2,0,0,0,.94-1.92,2.62,2.62,0,0,0-.34-1.11,2.24,2.24,0,0,0-2-1.11,4.3,4.3,0,0,1,1.44-2.13,5.57,5.57,0,0,1,3.67-1.2,24.64,24.64,0,0,1,2.48.17,5,5,0,0,1,3,1.84,6.05,6.05,0,0,1,1.5,4.22,10,10,0,0,1-.6,3.33,8.3,8.3,0,0,1-3.07,4.22,9.67,9.67,0,0,1-5.63,1.49,10.47,10.47,0,0,1-7.42-2.77q-3-2.78-4.09-8.32a17.63,17.63,0,0,1-.35-3.66,9.61,9.61,0,0,1,.09-1.54q1-8.35,6.82-12.45,6.23-4.35,18.68-4.35c1.93,0,3.28,0,4,.08s2.4.26,4.91.6l2.13.34,4.35.6,2.56.34c2,.17,3.75.26,5.28.26A31.63,31.63,0,0,0,265.76,232.39Z"
         id="path855"
         style="fill-opacity:1.0" />
      <path
         class="cls-8"
         d="M334.75,292.1,333,295.68l-2.13-.69a33.42,33.42,0,0,0-6.74-1.66,71.52,71.52,0,0,0-7.42-.3,21.17,21.17,0,0,0-5.54.69,34.41,34.41,0,0,0-5.38,2l-3.49-3.33.42-.51.94-1a11.11,11.11,0,0,0,2.26-3.63,15.29,15.29,0,0,0,.56-4.65v-1.62l-.09-.25-.6-3.5-.17-.6-.42-2.22-.68.94a15.77,15.77,0,0,1-3.76,3.5,7.49,7.49,0,0,1-3.92,1,18.77,18.77,0,0,1-2.77-.25,11.75,11.75,0,0,1-3.8-1.45l-1.7-1.2-.26,2.9q0,7.77,7.51,11.6l.94.43-2.31,3.75-2.64-1.11a26.2,26.2,0,0,0-5.55-1.32,45.85,45.85,0,0,0-5.71-.38,14.83,14.83,0,0,0-5.16.64,7,7,0,0,0-2.86,2.26l-3.32-3.33,1.87-2a56.14,56.14,0,0,0,5.42-7.12,38,38,0,0,0,3.2-6.53,35.25,35.25,0,0,0,1.36-5.37,4.6,4.6,0,0,0-3.07-1.28,4.38,4.38,0,0,0-4.26,2.9l-.51,1.45q-4.62-1.87-4.61-7.85a16.94,16.94,0,0,1,.25-2.73,7.3,7.3,0,0,1,1-2.72,10.82,10.82,0,0,1,4.13-4.31,12.9,12.9,0,0,1,6.36-1.41,15.89,15.89,0,0,1,1.88.13l1.7.21L285,256l.77-2.22a32.9,32.9,0,0,0,1.45-8.61,12.85,12.85,0,0,0-2.39-7.51l-1.37-1.62,2.14-3.07a29.89,29.89,0,0,0,6,1.79,36.36,36.36,0,0,0,5.46.34,5.39,5.39,0,0,0,.93.09h3.07c.69,0,1.42,0,2.22-.09l2-.17,2.39-.17a20.48,20.48,0,0,0,6.14-.85c.11-.06,1.17-.46,3.16-1.19l2.81,2.89-.85,1a8.84,8.84,0,0,0-1.88,5.46,73.35,73.35,0,0,0,1.28,10.06,65.2,65.2,0,0,0,2.13,9l2.14,6.82.76,2.3,1.37,4.52a66.33,66.33,0,0,0,2.56,6.87,29.54,29.54,0,0,0,3.07,5.33,28.33,28.33,0,0,0,2.05,2.64A32.51,32.51,0,0,0,334.75,292.1ZM303.11,268a6.92,6.92,0,0,0-.08-1.83c-.12-.71-.37-1.81-.77-3.29l-1.2-4.69-.08-.34-.85-2.81-.6-2.05-3.07-8.36-2.22.08-.34,1.63-.34,2-.34,2-.34,1.71-.94,3.58a15.08,15.08,0,0,0-.77,3.58,3.39,3.39,0,0,0,.43,1.71c.39.51.71.94.94,1.28l2.3,3.24.25.43,2.39,3.07a4.67,4.67,0,0,0,2,1.53,2.45,2.45,0,0,0,1.11.26,2.37,2.37,0,0,0,1.7-.77A2.61,2.61,0,0,0,303.11,268Z"
         id="path857"
         style="fill-opacity:1.0" />
      <path
         class="cls-7"
         d="M399.66,275.29a24.85,24.85,0,0,1,.25,3.5q0,9-9.12,13.82a30.16,30.16,0,0,1-7,2.51,45.07,45.07,0,0,1-10,.9c-1.25,0-2.43,0-3.54,0a42.06,42.06,0,0,1-4.9-.56l-.6-.08-5.45-1-2.48-.42c-1.76-.23-3.2-.4-4.31-.52s-2.26-.17-3.45-.17a30,30,0,0,0-9.89,2l-1.28.51-2.13-3.41a24.88,24.88,0,0,0,5.33-9.26q1.58-5.07,1.57-14.2v-3l-.08-1.11-.26-6.31-.17-3.07-.08-1.37a26.54,26.54,0,0,0-1.28-8.48A29.8,29.8,0,0,0,337,238a8.58,8.58,0,0,0-1-1.4c-.48-.6-.9-1.1-1.24-1.5l2.39-2.47a30.51,30.51,0,0,0,9.38,2.47,35,35,0,0,0,3.93.26,39.71,39.71,0,0,0,7.25-.85l6.31-1a58.6,58.6,0,0,1,10.4-1q11,0,17.23,5a14.53,14.53,0,0,1,5.8,11.77,9.67,9.67,0,0,1-1.83,6.31q-1.85,2.22-6.87,4.18l-5.29,1.71L381,262l2.9.25Q397.86,264.13,399.66,275.29Zm-21.07.6c-.34-3.92-1.48-6.74-3.41-8.44s-5.06-2.56-9.38-2.56a12.61,12.61,0,0,0-2.48.21,12,12,0,0,0-2.38.81l.34,10.92.17,2.05q1.37,11.76,7.5,11.77a10.64,10.64,0,0,0,3.67-.77Q378.59,287.66,378.59,275.89Zm-1-25.93a15.24,15.24,0,0,0,.08-1.79q0-8.19-7-9.81a18.62,18.62,0,0,0-2.56-.34,5.65,5.65,0,0,0-5.2,2.86c-1.14,1.91-1.71,5.1-1.71,9.59v8.36l2,.09c.91,0,1.78,0,2.6,0s1.61,0,2.35,0c3.3,0,5.7-.69,7.21-2.09S377.57,253.2,377.57,250Z"
         id="path859"
         style="fill-opacity:1.0"
         inkscape:export-filename="/Users/johanforsell/Developer/BarTab/BarTab brand identity/icon set/yellow_logo_no_bg.png"
         inkscape:export-xdpi="328.604"
         inkscape:export-ydpi="328.604" />
    </g>
  </g>
</svg>
