<?xml version="1.0" encoding="UTF-8" standalone="no"?>
<svg
   viewBox="0 0 214.21057 205.00986"
   version="1.1"
   id="svg864"
   sodipodi:docname="yellow_logo_no_bg.svg"
   inkscape:export-filename="/Users/johanforsell/Developer/BarTab/BarTab brand identity/icon set/yellow_logo_no_bg.png"
   inkscape:export-xdpi="328.604"
   inkscape:export-ydpi="328.604"
   inkscape:version="1.1.1 (c3084ef, 2021-09-22)"
   width="214.21057"
   height="205.00986"
   xmlns:inkscape="http://www.inkscape.org/namespaces/inkscape"
   xmlns:sodipodi="http://sodipodi.sourceforge.net/DTD/sodipodi-0.dtd"
   xmlns:xlink="http://www.w3.org/1999/xlink"
   xmlns="http://www.w3.org/2000/svg"
   xmlns:svg="http://www.w3.org/2000/svg">
  <sodipodi:namedview
     id="namedview866"
     pagecolor="#ffffff"
     bordercolor="#666666"
     borderopacity="1.0"
     inkscape:pageshadow="2"
     inkscape:pageopacity="0.0"
     inkscape:pagecheckerboard="0"
     showgrid="false"
     inkscape:zoom="0.68702958"
     inkscape:cx="153.55962"
     inkscape:cy="136.09312"
     inkscape:window-width="1312"
     inkscape:window-height="1081"
     inkscape:window-x="0"
     inkscape:window-y="25"
     inkscape:window-maximized="0"
     inkscape:current-layer="Layer_1" />
  <defs
     id="defs837">
    <style
       id="style824">.cls-1{isolation:isolate;}.cls-2{font-size:216.58px;font-family:Gilroy-Bold;font-weight:700;letter-spacing:-0.03em;}.cls-3{opacity:0.45;mix-blend-mode:multiply;}.cls-4{fill:url(#linear-gradient);}.cls-5{fill:url(#linear-gradient-2);}.cls-6{fill:url(#linear-gradient-3);}.cls-7{fill:url(#linear-gradient-4);}.cls-8{fill:url(#linear-gradient-5);}.cls-9{fill:url(#linear-gradient-6);}.cls-10{fill:url(#linear-gradient-7);}</style>
    <linearGradient
       id="linear-gradient"
       x1="205.34"
       y1="-0.46000001"
       x2="205.34"
       y2="201.91"
       gradientUnits="userSpaceOnUse">
      <stop
         offset="0"
         stop-color="#082b5e"
         id="stop826" />
      <stop
         offset="1"
         stop-color="#14213d"
         id="stop828" />
    </linearGradient>
    <linearGradient
       id="linear-gradient-2"
       x1="216.11"
       y1="-0.46000001"
       x2="216.11"
       y2="201.91"
       xlink:href="#linear-gradient-2-9" />
    <linearGradient
       id="linear-gradient-3"
       x1="113.25"
       y1="-0.46000001"
       x2="113.25"
       y2="201.91"
       xlink:href="#linear-gradient-2-9" />
    <linearGradient
       id="linear-gradient-4"
       x1="14.45"
       y1="264.25"
       x2="390.14001"
       y2="264.25"
       xlink:href="#linear-gradient-2-9" />
    <linearGradient
       id="linear-gradient-5"
       x1="14.45"
       y1="264.20999"
       x2="390.14001"
       y2="264.20999"
       xlink:href="#linear-gradient-2-9" />
    <linearGradient
       id="linear-gradient-6"
       x1="14.45"
       y1="264.89001"
       x2="390.14001"
       y2="264.89001"
       xlink:href="#linear-gradient-2-9" />
    <linearGradient
       id="linear-gradient-7"
       x1="14.45"
       y1="264.16"
       x2="390.14001"
       y2="264.16"
       xlink:href="#linear-gradient-2-9" />
    <linearGradient
       id="linear-gradient-2-9"
       x1="408.53"
       y1="110.15"
       x2="408.53"
       y2="623.04999"
       gradientUnits="userSpaceOnUse">
      <stop
         offset="0"
         stop-color="#fca311"
         id="stop1989" />
      <stop
         offset="1"
         stop-color="#f4950c"
         id="stop1991" />
    </linearGradient>
    <linearGradient
       inkscape:collect="always"
       xlink:href="#linear-gradient-2-9"
       id="linearGradient3080"
       gradientUnits="userSpaceOnUse"
       x1="205.34"
       y1="-0.46000001"
       x2="205.34"
       y2="201.91" />
  </defs>
  <g
     class="cls-1"
     id="g862"
     transform="translate(-85.044761,-0.00347454)">
    <g
       id="Layer_1"
       data-name="Layer 1">
      <text
         class="cls-2"
         transform="translate(107.3,227.26)"
         id="text839" />
      <path
         class="cls-4"
         d="m 149.57,44.85 c -0.57,-5.05 0.42,-8.78 3,-11.41 5.63,-5.64 17.83,-5.69 22,-5.23 l 4.67,0.53 1.48,-4.47 a 17.11,17.11 0 0 1 11,-11.36 23.55,23.55 0 0 1 8.49,-1.26 h 0.5 c 13.46,0.06 19.86,16 19.91,16.18 l 2.3,6 5.84,-2.83 c 5.84,-2.94 10.47,-4.48 14.13,-4.69 6.52,-0.37 11.6,1.14 14.7,4.36 3.62,3.77 3.92,9.3 3.54,13.28 a 14.35,14.35 0 0 1 -1.57,5.78 2,2 0 0 1 -2.12,1.19 L 257,62.49 h 0.59 c 8.38,0 14,-6.48 15.05,-17.46 0.89,-9.18 -1.43,-16.94 -6.72,-22.44 -5.52,-5.74 -13.73,-8.48 -23.73,-7.9 a 40.67,40.67 0 0 0 -13.41,3.47 C 224.73,11.23 216,0.26 201.11,0.08 c -7.7,-0.61 -22.61,2.21 -29.59,16.35 -6.72,-0.1 -19.21,0.91 -27.1,8.8 -3.58,3.58 -7.6,10.13 -6.38,20.92 z"
         id="path843"
         style="fill:url(#linearGradient3080);fill-opacity:1" />
      <path
         class="cls-5"
         d="m 298.23,85.73 a 19.78,19.78 0 0 0 -19,-17.49 c -9.75,-0.38 -19.88,-0.52 -19.88,-0.52 -2.06,-0.07 -3.15,-0.73 -3.72,-1.47 0,-11.15 0.07,-18.14 0.07,-18.14 -30.32,-3.19 -58.94,-3 -58.94,-3 0,0 -28.62,0.13 -58.91,3.6 0,0 2,85.88 -4.75,135.69 a 8.72,8.72 0 0 0 2.74,7.67 c 5.71,5.15 21.11,13.13 61.66,12.94 40.55,-0.19 55.88,-8.31 61.54,-13.52 a 8.7,8.7 0 0 0 2.68,-7.69 c -0.88,-6.05 -1.63,-12.63 -2.28,-19.52 a 12.38,12.38 0 0 1 0.27,-2.07 8.14,8.14 0 0 1 4.34,-5.42 88.38,88.38 0 0 0 15.1,-9.05 c 11.19,-8.67 18.87,-21 19.78,-34.86 a 147.47,147.47 0 0 0 -0.7,-27.15 z m -49.91,66.89 c -1.6,0.45 -3.2,0.88 -4.79,1.27 -2,-23.11 -2.46,-43.26 -2.53,-61.45 l 4.76,-0.43 c 0.34,18.39 1.06,40.18 2.56,60.61 z M 196.79,55.15 c 0.25,0 22.89,-0.07 48.73,2.13 0,4.39 0,10.12 0,16.82 -41.48,4.07 -81.73,2.38 -97.33,0.62 0,-6.77 -0.07,-12.56 -0.13,-17 25.83,-2.43 48.48,-2.57 48.73,-2.57 z m 28,102.45 c -1.56,0.23 -3.1,0.44 -4.64,0.64 -1.34,-22.16 -2.2,-49.55 -2.6,-64.32 l 4.66,-0.21 c 0.41,14.62 1.27,41.91 2.59,63.89 z m -24.27,2.18 c -1.58,0.06 -3.13,0.09 -4.66,0.11 l -1.28,-65.42 h 4.66 z M 175.79,94.26 c -0.06,14.38 -0.29,42.27 -1.13,64.91 -1.59,-0.13 -3.15,-0.27 -4.65,-0.42 0.82,-22.5 1.05,-50.4 1.12,-64.63 z m -27.64,-1.59 c 1.47,0.15 3.06,0.29 4.78,0.43 0.09,18.55 -0.21,39.15 -2.09,62.86 -1.9,-0.37 -3.5,-0.71 -4.8,-1 1.4,-20.91 1.96,-43.39 2.11,-62.29 z m 101.64,93.12 c -5.42,3.36 -19.37,8.93 -52.35,9.08 -32.98,0.15 -46.87,-5.24 -52.37,-8.55 a 3.43,3.43 0 0 1 -1.64,-3.36 c 0.35,-2.74 0.67,-5.57 1,-8.47 1.37,0.29 2.9,0.6 4.59,0.92 -0.28,2.55 -0.58,5.12 -0.9,7.73 3,1.58 9,3.9 19.84,5.5 0.41,-2.52 0.77,-6.09 1.09,-10.4 1.5,0.15 3,0.29 4.63,0.41 -0.32,4.32 -0.69,7.95 -1.11,10.59 a 212.12,212.12 0 0 0 23.93,1.18 l -0.22,-11 c 1.53,0 3.09,-0.06 4.66,-0.11 l 0.22,11.12 a 202.44,202.44 0 0 0 22,-1.48 112.36,112.36 0 0 1 -1.53,-11.26 c 1.53,-0.19 3.07,-0.39 4.62,-0.61 a 101.9,101.9 0 0 0 1.53,11.19 c 10.23,-1.68 15.95,-4 18.89,-5.54 -0.41,-3.15 -0.8,-6.25 -1.15,-9.3 1.51,-0.36 3,-0.74 4.57,-1.14 0.38,3.52 0.79,6.94 1.24,10.22 a 3.37,3.37 0 0 1 -1.54,3.28 z m 12.61,-43.27 c -2.48,1.48 -3.85,1.36 -4.6,0.6 -1.23,-20 -1.79,-40.68 -2,-57.65 0.08,-0.48 0.13,-0.81 0.15,-0.91 a 3.34,3.34 0 0 1 3.24,-2.8 c 5.91,-0.3 12.26,-0.31 17.23,-0.23 a 9.46,9.46 0 0 1 9.38,9.14 l 0.5,12 c 0.88,28.72 -23.9,39.85 -23.9,39.85 z"
         id="path845"
         style="fill:url(#linear-gradient-2);fill-opacity:1" />
      <path
         class="cls-6"
         d="m 120.1,80.67 -7.52,6.45 -1,0.88 a 3,3 0 0 1 -4.21,0 q -4,-3.37 -7.92,-6.79 l -0.64,-0.54 -2.91,2.46 c -1.85,1.59 -3.7,3.16 -5.53,4.76 a 3.09,3.09 0 0 1 -5.31,-2.44 q 0,-25.7 0,-51.37 a 12.16,12.16 0 0 1 10.2,-12.23 13.22,13.22 0 0 1 2.35,-0.18 H 139 a 3.4,3.4 0 0 1 2.44,0.56 c -0.3,0.14 -0.56,0.43 -0.8,0.54 -5,3.91 -7.67,11.47 -7.27,23.48 0.45,13.34 0,30.1 0,39.07 0,2 -1,3.29 -2.72,3.51 a 3.24,3.24 0 0 1 -2.6,-0.94 c -2.65,-2.28 -4.8,-4.56 -7.46,-6.84 z M 109.47,64.42 c 3,0 6,0 8.93,0 a 3.06,3.06 0 1 0 0,-6.11 q -9,0 -17.93,0 a 3.06,3.06 0 1 0 0.06,6.11 z m 0,-12.2 h 8.64 a 6.35,6.35 0 0 0 1.07,-0.08 3,3 0 0 0 2.47,-3.26 3,3 0 0 0 -2.87,-2.76 q -9.27,0 -18.56,0 a 3,3 0 0 0 -2.75,2 3.06,3.06 0 0 0 3.08,4.05 c 2.93,0.06 5.91,0.05 8.88,0.05 z m 0,-12.24 v 0 c 2.93,0 5.85,0 8.78,0 a 4.79,4.79 0 0 0 1.2,-0.11 3,3 0 0 0 2.19,-3.4 3,3 0 0 0 -2.9,-2.56 c -2.15,0 -4.29,0 -6.43,0 h -11.83 a 3,3 0 0 0 -3,1.83 3,3 0 0 0 2.8,4.26 c 3.05,0 6.09,0 9.14,0 z"
         id="path847"
         style="fill:url(#linear-gradient-3);fill-opacity:1" />
    </g>
  </g>
</svg>
