<?xml version="1.0" encoding="UTF-8" standalone="no"?>
<!-- Created with Inkscape (http://www.inkscape.org/) -->

<svg
   width="75.944695mm"
   height="48.944942mm"
   viewBox="0 0 75.944695 48.944942"
   version="1.1"
   id="svg5"
   inkscape:version="1.1.1 (c3084ef, 2021-09-22)"
   sodipodi:docname="logotext.svg"
   xmlns:inkscape="http://www.inkscape.org/namespaces/inkscape"
   xmlns:sodipodi="http://sodipodi.sourceforge.net/DTD/sodipodi-0.dtd"
   xmlns="http://www.w3.org/2000/svg"
   xmlns:svg="http://www.w3.org/2000/svg">
  <sodipodi:namedview
     id="namedview7"
     pagecolor="#ffffff"
     bordercolor="#666666"
     borderopacity="1.0"
     inkscape:pageshadow="2"
     inkscape:pageopacity="0.0"
     inkscape:pagecheckerboard="0"
     inkscape:document-units="mm"
     showgrid="false"
     inkscape:zoom="1.5554293"
     inkscape:cx="4.82182"
     inkscape:cy="98.686582"
     inkscape:window-width="1312"
     inkscape:window-height="1081"
     inkscape:window-x="0"
     inkscape:window-y="25"
     inkscape:window-maximized="0"
     inkscape:current-layer="text955" />
  <defs
     id="defs2">
    <rect
       x="97.722221"
       y="39.860378"
       width="270.02191"
       height="113.15204"
       id="rect32260" />
    <rect
       x="235.30481"
       y="351.0285"
       width="277.73682"
       height="120.86695"
       id="rect957" />
  </defs>
  <g
     inkscape:label="Layer 1"
     inkscape:groupmode="layer"
     id="layer1"
     transform="translate(-30.511279,-73.527823)">
    <g
       aria-label="BAR"
       transform="matrix(1.419269,0,0,1.419269,-305.61153,-427.34579)"
       id="text955"
       style="font-size:40px;line-height:1.25;font-family:anton;-inkscape-font-specification:anton;white-space:pre;shape-inside:url(#rect957)">
      <path
         d="m 236.82812,387.28457 v -34.375 h 9.31641 q 3.75,0 5.44922,1.83594 1.71875,1.8164 1.71875,6.01562 v 1.50391 q 0,2.42187 -0.87891,3.92578 -0.85937,1.5039 -2.63672,1.97265 2.32422,0.58594 3.10547,2.75391 0.80078,2.14844 0.80078,5.25391 0,3.33984 -0.625,5.83984 -0.625,2.5 -2.26562,3.88672 -1.64063,1.38672 -4.66797,1.38672 z m 6.71875,-21.42578 h 1.40625 q 0.95704,0 1.23047,-0.74219 0.27344,-0.74219 0.27344,-1.77734 v -3.45704 q 0,-1.66015 -1.46484,-1.66015 h -1.44532 z m 0.6836,15.37109 q 2.67578,0 2.67578,-2.53906 v -4.29688 q 0,-1.46484 -0.44922,-2.30468 -0.42969,-0.85938 -1.64062,-0.85938 h -1.26954 v 9.96094 q 0.42969,0.0391 0.6836,0.0391 z"
         id="path24905"
         style="fill:#fca311;fill-opacity:1" />
      <path
         d="m 252.02165,387.28457 3.32031,-34.375 h 11.66016 l 3.26172,34.375 h -6.50391 l -0.48828,-5.54688 h -4.14063 l -0.42968,5.54688 z m 7.59766,-11.03516 h 3.125 l -1.50391,-17.48047 h -0.3125 z"
         id="path24907"
         style="fill:#fca311;fill-opacity:1" />
      <path
         d="m 269.14532,387.28457 v -34.375 h 10.54688 q 2.63672,0 3.98437,1.21094 1.34766,1.1914 1.79688,3.35937 0.46875,2.14844 0.46875,5.05859 0,2.8125 -0.72266,4.49219 -0.70312,1.67969 -2.67578,2.32422 1.6211,0.33203 2.26563,1.62109 0.66406,1.26954 0.66406,3.30079 v 13.00781 h -6.77734 v -13.45703 q 0,-1.50391 -0.625,-1.85547 -0.60547,-0.3711 -1.97266,-0.3711 v 15.6836 z m 6.99219,-21.64063 h 1.66016 q 1.42578,0 1.42578,-3.10547 0,-2.01171 -0.3125,-2.63671 -0.3125,-0.625 -1.17188,-0.625 h -1.60156 z"
         id="path24909"
         style="fill:#fca311;fill-opacity:1" />
      <g
         aria-label="tab"
         transform="matrix(0.81923922,0,0,0.81923922,181.92677,323.8271)"
         id="text32258"
         style="font-family:sans-serif;shape-inside:url(#rect32260);fill:#ffffff">
        <path
           d="m 103.20266,75.674541 q -0.88,0 -1.4,-0.6 -0.52,-0.64 -0.8,-1.56 -0.24,-0.96 -0.32,-1.88 -0.08,-0.96 -0.08,-1.56 0,-2.16 0.16,-4.36 0.2,-2.2 0.4,-4.36 -0.68,0.28 -1.320004,0.64 -0.6,0.36 -1.12,0.92 -0.08,0.08 -0.2,0.16 -0.08,0.08 -0.24,0.08 -0.28,0 -0.56,-0.28 -0.24,-0.28 -0.24,-0.56 0,-0.36 0.48,-0.72 0.48,-0.4 1.16,-0.72 0.72,-0.36 1.320004,-0.6 0.64,-0.24 0.88,-0.32 0.04,-0.32 0.16,-1.2 0.16,-0.92 0.36,-2.04 0.2,-1.16 0.44,-2.2 0.28,-1.08 0.56,-1.76 0.28,-0.72 0.56,-0.72 0.28,0 0.56,0.2 0.28,0.2 0.28,0.48 0,0.12 -0.2,1 -0.2,0.88 -0.52,2.08 -0.28,1.16 -0.52,2.2 -0.2,1.04 -0.28,1.44 1.76,-0.52 3.36,-0.84 1.64,-0.32 3.44,-0.32 0.16,0 0.6,0 0.44,0 0.84,0.04 0.44,0.04 0.44,0.16 -0.4,0.16 -0.88,0.24 -0.44,0.08 -0.88,0.12 -1.92,0.16 -3.64,0.72 -1.68,0.56 -3.44,1.24 -0.28,2.28 -0.48,4.64 -0.2,2.32 -0.2,4.6 0,0.44 0.04,1.2 0.04,0.72 0.16,1.48 0.12,0.72 0.4,1.24 0.28,0.52 0.8,0.52 0.68,0 1.4,-0.76 0.72,-0.8 1.44,-1.92 0.72,-1.16 1.32,-2.32 0.6,-1.16 1.04,-1.96 0.48,-0.8 0.64,-0.84 v 0.12 q 0,0.6 -0.4,1.68 -0.4,1.08 -1.08,2.32 -0.64,1.2 -1.44,2.32 -0.76,1.12 -1.56,1.84 -0.76,0.72 -1.44,0.72 z"
           style="font-family:Licorice;-inkscape-font-specification:Licorice"
           id="path35662" />
        <path
           d="m 109.97578,77.474541 q -0.68,0 -1,-0.68 -0.32,-0.64 -0.4,-1.48 -0.08,-0.84 -0.08,-1.28 0,-1.52 0.28,-3.2 0.28,-1.72 0.72,-3.2 0.2,-0.68 0.72,-1.96 0.52,-1.32 1.24,-2.68 0.76,-1.36 1.6,-2.28 0.88,-0.96 1.76,-0.96 0.68,0 1.48,0.6 0.8,0.6 0.8,1.32 0,0.28 -0.2,0.48 0.04,-0.04 0.2,-0.04 0.76,0 0.76,0.8 0,0.92 -0.28,2.2 -0.24,1.28 -0.52,2.72 -0.28,1.4 -0.28,2.72 0,0.48 0.08,1.16 0.08,0.64 0.36,1.16 0.32,0.52 1,0.52 0.64,0 1.36,-0.68 0.72,-0.68 1.4,-1.68 0.68,-1 1.28,-2 0.6,-1 1,-1.68 0.44,-0.68 0.6,-0.68 0.28,0 0.28,0.36 0,0.48 -0.44,1.4 -0.4,0.88 -1.08,1.96 -0.68,1.04 -1.52,2.04 -0.8,0.96 -1.64,1.6 -0.8,0.6 -1.44,0.6 -1.04,0 -1.6,-0.84 -0.52,-0.88 -0.72,-2.08 -0.16,-1.2 -0.16,-2.24 0,-0.36 0,-0.68 0,-0.32 0.04,-0.56 -0.24,0.56 -0.68,1.68 -0.44,1.08 -1.04,2.4 -0.56,1.28 -1.24,2.48 -0.64,1.16 -1.32,1.92 -0.68,0.76 -1.32,0.76 z m 0.32,-1.68 q 0.52,0 1.16,-0.96 0.64,-0.96 1.32,-2.44 0.72,-1.52 1.36,-3.24 0.64,-1.72 1.16,-3.24 0.56,-1.56 0.92,-2.56 0.36,-1.04 0.48,-1.12 l -0.24,0.04 q -0.28,0 -0.44,-0.28 -0.16,-0.32 -0.4,-0.6 -0.24,-0.28 -0.8,-0.28 -0.72,0 -1.4,0.84 -0.68,0.84 -1.32,2.04 -0.6,1.16 -1.04,2.28 -0.4,1.12 -0.56,1.68 -0.8,2.76 -0.8,5.68 0,0.16 0,0.72 0.04,0.52 0.16,1 0.16,0.44 0.44,0.44 z"
           style="font-family:Licorice;-inkscape-font-specification:Licorice"
           id="path35664" />
        <path
           d="m 124.09141,77.594541 q -0.48,0 -0.76,-0.88 -0.24,-0.88 -0.4,-2.08 -0.12,-1.24 -0.16,-2.32 0,-1.08 0,-1.48 0,-2.92 0.48,-6.24 0.52,-3.36 1.48,-6.6 0.96,-3.24 2.28,-5.84 0.28,-0.52 0.8,-1.44 0.56,-0.92 1.24,-1.64 0.68,-0.76 1.32,-0.76 0.56,0 0.8,0.4 0.28,0.36 0.28,0.88 0,0.72 -0.64,0.72 -0.28,0 -0.6,-0.12 -0.32,0.16 -0.76,0.72 -0.4,0.52 -0.76,1.08 -0.36,0.56 -0.56,0.92 -2,3.92 -3.12,8.44 -1.12,4.52 -1.12,8.96 0,0.48 0,1 0,0.48 0.04,1 0.16,-0.72 0.64,-2.04 0.52,-1.36 1.24,-2.88 0.72,-1.56 1.56,-2.96 0.88,-1.4 1.76,-2.28 0.92,-0.92 1.76,-0.92 0.68,0 0.96,0.48 0.32,0.44 0.4,1.08 0.08,0.64 0.08,1.12 0,0.8 -0.24,2.2 -0.24,1.4 -0.72,3 -0.44,1.56 -1.12,3 -0.68,1.4 -1.56,2.32 -0.88,0.92 -1.92,0.92 -0.64,0 -1.08,-0.36 -0.4,-0.36 -0.64,-0.92 -0.16,0.76 -0.24,1.32 -0.04,0.52 -0.04,1.32 0,0.28 -0.16,0.56 -0.16,0.32 -0.52,0.32 z m 2.32,-3.24 q 0.84,0 1.56,-0.84 0.76,-0.88 1.32,-2.2 0.6,-1.32 1,-2.76 0.4,-1.48 0.6,-2.72 0.24,-1.28 0.24,-1.96 v -0.16 q 0,-0.36 -0.08,-0.68 -0.08,-0.32 -0.48,-0.32 -0.52,0 -1.16,0.8 -0.64,0.8 -1.32,2.04 -0.68,1.2 -1.24,2.52 -0.56,1.28 -0.92,2.4 -0.36,1.08 -0.36,1.56 0,0.28 0,0.84 0.04,0.56 0.2,1.04 0.2,0.44 0.64,0.44 z"
           style="font-family:Licorice;-inkscape-font-specification:Licorice"
           id="path35666" />
      </g>
    </g>
  </g>
</svg>
