<?xml version="1.0" encoding="UTF-8" standalone="no"?>
<!-- Created with Inkscape (http://www.inkscape.org/) -->

<svg
   width="210mm"
   height="297mm"
   viewBox="0 0 210 297"
   version="1.1"
   id="svg5"
   inkscape:version="1.1.1 (c3084ef, 2021-09-22)"
   sodipodi:docname="beer.svg"
   xmlns:inkscape="http://www.inkscape.org/namespaces/inkscape"
   xmlns:sodipodi="http://sodipodi.sourceforge.net/DTD/sodipodi-0.dtd"
   xmlns="http://www.w3.org/2000/svg"
   xmlns:svg="http://www.w3.org/2000/svg">
  <sodipodi:namedview
     id="namedview7"
     pagecolor="#ffffff"
     bordercolor="#666666"
     borderopacity="1.0"
     inkscape:pageshadow="2"
     inkscape:pageopacity="0.0"
     inkscape:pagecheckerboard="true"
     inkscape:document-units="mm"
     showgrid="false"
     inkscape:zoom="0.77771465"
     inkscape:cx="252.66336"
     inkscape:cy="575.40385"
     inkscape:window-width="3440"
     inkscape:window-height="1301"
     inkscape:window-x="0"
     inkscape:window-y="25"
     inkscape:window-maximized="0"
     inkscape:current-layer="layer1" />
  <defs
     id="defs2" />
  <g
     inkscape:label="Layer 1"
     inkscape:groupmode="layer"
     id="layer1">
    <path
       style="fill:#000000;stroke-width:0.405186"
       d="m 52.935281,245.33495 c -6.25613,-1.62755 -11.57978,-6.87029 -13.78061,-13.57113 l -0.91149,-2.77521 -0.008,-40.39184 -0.008,-40.39184 -3.06567,0.22584 c -2.2945,0.16904 -3.56965,0.0459 -5.06918,-0.48939 -2.6095,-0.93158 -5.78076,-3.99842 -6.96793,-6.7385 l -0.91369,-2.10886 -0.004,-29.06226 c -0.004,-31.412031 0.01,-31.660511 2.1455,-37.777067 4.82565,-13.821658 18.02385,-23.94876 31.46457,-24.143053 l 3.46527,-0.05009 1.04924,-1.627314 c 1.74306,-2.703397 7.28333,-8.128526 10.16518,-9.953929 9.21741,-5.838438 19.45157,-7.052375 29.34148,-3.480376 3.811649,1.376672 8.366359,4.090465 10.922029,6.507563 l 1.83713,1.737521 2.58201,-0.724342 c 7.61579,-2.136483 15.83445,0.944422 20.63996,7.737235 l 0.81979,1.158815 2.67692,-0.677816 c 7.18748,-1.819924 15.13148,1.27752 19.70699,7.683952 2.51796,3.525533 3.55813,6.601474 3.79131,11.211491 0.33142,6.552319 -1.3215,11.431073 -5.4314,16.031263 l -2.29712,2.57117 v 6.16033 6.16033 l 10.84558,0.006 c 8.29072,0.005 11.43545,0.15565 13.34961,0.6406 6.45827,1.636197 11.71427,6.753167 13.96,13.590737 l 0.91149,2.77521 v 39.90648 39.90647 l -0.91149,2.77521 c -2.24573,6.83757 -7.50173,11.95454 -13.96,13.59074 -1.91416,0.48496 -5.05889,0.63586 -13.34961,0.64061 l -10.84558,0.006 -0.008,8.29634 c -0.008,7.6039 -0.0843,8.52798 -0.91973,11.07156 -2.24574,6.83757 -7.50174,11.95454 -13.96,13.59074 -3.62637,0.91874 -83.724409,0.90074 -87.262109,-0.0196 z m 86.509029,-8.44173 c 2.3766,-0.82497 5.26574,-3.4425 6.57923,-5.96071 l 0.90438,-1.73387 h -6.3174 -6.3174 l -1.32882,-1.42823 c -1.42181,-1.52816 -1.65639,-2.80037 -0.86191,-4.67449 0.84811,-2.00066 2.02636,-2.29864 9.08905,-2.29864 h 6.46813 V 155.37166 89.946039 h -4.29915 -4.29915 l -0.004,16.172631 c -0.004,16.13964 -0.006,16.17699 -0.93233,18.31588 -1.0909,2.51809 -3.1532,4.86152 -5.32754,6.05376 l -1.55294,0.85152 v 34.88944 34.88943 l -1.14244,1.22789 c -0.84571,0.90908 -1.51313,1.2279 -2.57038,1.2279 -1.05725,0 -1.72467,-0.31882 -2.57046,-1.2279 l -1.14244,-1.22789 v -34.88943 -34.88944 l -1.55294,-0.85152 c -1.98923,-1.09074 -4.0657,-3.32721 -5.18334,-5.58275 -0.83993,-1.6951 -0.88891,-2.34491 -1.09946,-14.58621 -0.20217,-11.754501 -0.28706,-12.971311 -1.02844,-14.741091 -1.32387,-3.1603 -4.32621,-4.79088 -9.72435,-5.28133 l -2.8798,-0.26164 -2.456399,2.17787 c -8.92318,7.911371 -21.40891,7.923691 -30.23968,0.0299 -1.27092,-1.13608 -2.57488,-2.0704 -2.89769,-2.07627 -0.3228,-0.006 -0.99022,0.80644 -1.48315,1.80513 -3.08041,6.24099 -9.90375,11.827561 -16.69633,13.670021 l -2.72934,0.7403 -0.0991,57.20754 -0.0991,57.20753 h 29.68621 c 22.1835,0 29.945219,0.12684 30.710999,0.50185 0.56363,0.27602 1.2754,1.02275 1.58172,1.65941 0.90757,1.88635 0.6904,3.24019 -0.77189,4.81187 l -1.32883,1.42823 H 75.973091 46.418271 l 0.77015,1.62255 c 1.09122,2.29898 4.44588,5.40184 6.61692,6.12025 1.51993,0.50295 8.43082,0.60479 42.7081,0.62931 37.301849,0.0267 41.073629,-0.0328 42.930869,-0.67753 z m -21.58567,-8.56836 c -0.89786,-0.56208 -1.85644,-2.5911 -1.85644,-3.92951 0,-0.58542 0.50962,-1.67744 1.1325,-2.42671 0.93719,-1.12736 1.4159,-1.3623 2.77582,-1.3623 1.35991,0 1.83862,0.23494 2.77582,1.3623 0.62287,0.74927 1.13249,1.84129 1.13249,2.42671 0,1.39255 -0.98463,3.40547 -1.93251,3.95071 -0.95381,0.54865 -3.13574,0.53716 -4.02768,-0.0212 z m -55.430449,-25.97827 -1.14243,-1.22789 v -41.64668 c 0,-29.02945 0.12793,-41.90361 0.42229,-42.49476 0.68555,-1.37678 2.90539,-2.16964 4.49541,-1.60563 2.68264,0.95158 2.5081,-2.11109 2.5081,44.01144 v 41.73563 l -1.14243,1.22789 c -0.8458,0.90908 -1.51322,1.2279 -2.57047,1.2279 -1.05725,0 -1.72467,-0.31882 -2.57047,-1.2279 z m 31.26654,0 -1.14243,-1.22789 v -41.64668 c 0,-29.02945 0.12793,-41.90361 0.42229,-42.49476 0.68554,-1.37678 2.90538,-2.16964 4.4954,-1.60563 2.682639,0.95158 2.50811,-2.11109 2.50811,44.01144 v 41.73563 l -1.14243,1.22789 c -0.8458,0.90908 -1.51322,1.2279 -2.57047,1.2279 -1.05725,0 -1.72467,-0.31882 -2.57047,-1.2279 z m 84.747489,1.00865 c 2.6569,-0.84804 5.92328,-4.04351 7.17422,-7.01848 l 0.93088,-2.21381 v -38.64627 -38.64627 l -0.93088,-2.21381 c -1.25094,-2.97497 -4.51732,-6.17044 -7.17422,-7.01848 -1.57978,-0.50424 -4.25885,-0.63932 -12.67992,-0.63932 h -10.67693 v 4.18169 4.18168 l 10.78225,0.12402 10.78224,0.12401 0.94271,1.17861 0.9427,1.17862 v 37.54925 37.54925 l -0.9427,1.17862 -0.94271,1.17861 -10.78224,0.12401 -10.78225,0.12402 v 4.18168 4.18168 h 10.67693 c 8.42107,0 11.10014,-0.13507 12.67992,-0.63931 z m -7.33275,-47.87856 v -31.71515 h -8.01205 -8.01205 v 31.71515 31.71515 h 8.01205 8.01205 z M 36.401781,139.28494 c 0.55898,-0.47258 1.19727,-1.5595 1.41844,-2.41539 0.2452,-0.94891 0.40296,-8.24656 0.40429,-18.70154 10e-4,-11.47409 0.14186,-17.42592 0.42447,-17.99348 0.54497,-1.094461 2.66206,-2.037161 4.57503,-2.037161 0.82772,0 2.46021,-0.30157 3.62775,-0.67017 5.07929,-1.60352 9.06591,-5.0083 12.00351,-10.2516 0.90082,-1.60788 2.21079,-3.24855 3.18628,-3.99065 1.47447,-1.12169 1.96426,-1.25883 4.4564,-1.24773 3.1905,0.0142 4.68374,0.69476 7.88067,3.59161 1.07479,0.9739 2.92147,2.26267 4.10373,2.86394 1.89053,0.96146 2.64412,1.09321 6.25331,1.09321 3.60208,0 4.3665,-0.13305 6.25331,-1.08838 1.18226,-0.59861 3.11688,-1.98446 4.29915,-3.07967 3.49242,-3.23526 3.92236,-3.39902 8.793709,-3.34936 9.65471,0.0984 15.45208,3.59386 18.38998,11.08799 0.65559,1.6723 0.76473,3.38408 0.94633,14.842541 l 0.20528,12.95223 1.27637,1.22507 c 1.72477,1.65545 3.5393,1.65536 5.26389,-2.6e-4 l 1.27637,-1.22531 0.19542,-19.6049 0.19541,-19.604901 1.09658,-1.01333 c 1.36047,-1.25718 2.74712,-1.28083 5.20476,-0.0888 2.94445,1.42818 7.4495,1.34047 10.37175,-0.20194 4.24656,-2.2414 6.65037,-6.291385 6.65037,-11.204656 0,-3.890375 -1.11684,-6.570175 -3.86205,-9.266833 -3.82246,-3.754844 -8.52526,-4.331224 -13.61116,-1.668197 -2.44404,1.27972 -2.64892,1.318757 -4.0174,0.765419 -1.15503,-0.467035 -1.69576,-1.096631 -2.71701,-3.163562 -2.40664,-4.870832 -6.49279,-7.7181 -11.00943,-7.671459 -1.71683,0.01773 -2.58183,0.281516 -6.1561,1.877343 -0.98575,0.440115 -2.03337,0.622353 -2.6388,0.459033 -0.55222,-0.148967 -2.36675,-1.607877 -4.0323,-3.242022 -5.01455,-4.920018 -12.010489,-7.934224 -18.415249,-7.934224 -8.91137,0 -17.84368,5.243965 -22.92465,13.45856 -0.98914,1.599192 -2.00707,3.049979 -2.26207,3.223973 -0.25499,0.173994 -2.66205,0.340665 -5.34901,0.370381 -3.70047,0.04092 -5.63948,0.277266 -7.99444,0.974423 -9.43016,2.791684 -16.51993,10.325114 -19.41112,20.625791 -0.86892,3.0958 -0.88465,3.5561 -1.03291,30.238051 -0.10507,18.90708 -0.0208,27.56359 0.27883,28.64711 0.84292,3.04803 4.1709,4.30535 6.40231,2.41882 z"
       id="path21" />
  </g>
</svg>
